<svg width="201" height="200" viewBox="0 0 201 200" fill="none" xmlns="http://www.w3.org/2000/svg">
<g clip-path="url(#clip0)">
<path d="M184.167 149.951C181.039 149.951 177.813 148.778 174.489 146.432C171.166 144.086 168.396 141.023 166.18 137.243C167.353 137.374 168.266 137.439 168.917 137.439C174.131 137.439 178.562 136.201 182.212 133.724C185.861 131.248 187.686 128.315 187.686 124.927C187.686 121.668 186.057 118.866 182.798 116.52C179.54 114.174 175.499 112.805 170.677 112.414C165.333 116.064 156.242 119.062 143.404 121.408C130.566 123.754 116.131 124.927 100.1 124.927C79.3768 124.927 61.6838 123.069 47.021 119.355C32.3583 115.64 25.0269 111.241 25.0269 106.158C25.0269 102.248 29.328 98.7292 37.9301 95.6012C39.7548 100.293 47.1839 104.268 60.2175 107.527C73.2511 110.785 88.6307 112.414 106.356 112.414C121.084 112.414 134.313 111.241 146.044 108.895C157.774 106.549 166.115 103.552 171.068 99.9023C172.632 101.075 173.74 102.248 174.391 103.421C177.78 101.075 181.039 99.9023 184.167 99.9023C188.598 99.9023 192.378 102.346 195.506 107.234C198.634 112.121 200.198 118.019 200.198 124.927C200.198 131.834 198.634 137.732 195.506 142.62C192.378 147.507 188.598 149.951 184.167 149.951ZM112.612 62.1701C112.612 66.4712 113.264 70.3161 114.567 73.7048C115.871 77.0935 117.304 79.7654 118.869 81.7204C120.433 83.6755 121.866 86.2496 123.17 89.4428C124.473 92.636 125.125 96.1225 125.125 99.9023C124.473 99.5112 123.593 98.9899 122.485 98.3382C121.377 97.6865 119.357 96.1551 116.425 93.7439C113.492 91.3327 110.951 88.7911 108.8 86.1193C106.65 83.4474 104.662 79.9609 102.837 75.6598C101.013 71.3588 100.1 66.8622 100.1 62.1701C100.1 57.869 102.153 53.3399 106.259 48.5826C110.364 43.8254 115.219 39.7849 120.824 36.4614C126.428 33.1378 131.967 30.3682 137.441 28.1525C142.915 25.9368 147.151 24.8941 150.149 25.0244C147.803 25.0244 143.665 27.0446 137.735 31.085C131.804 35.1254 126.135 40.2085 120.726 46.3343C115.317 52.4601 112.612 57.7387 112.612 62.1701ZM75.0758 68.6217C75.0758 73.1835 76.1184 78.071 78.2038 83.2845C80.2892 88.4979 82.3746 92.6035 84.4599 95.6012L87.588 100.098C81.3319 100.098 75.5971 96.7742 70.3837 90.1271C65.1703 83.48 62.5635 76.3115 62.5635 68.6217C62.5635 65.233 63.8669 61.8117 66.4736 58.3578C69.0803 54.9039 72.2084 51.7758 75.8578 48.9736C79.5072 46.1714 83.1566 43.5321 86.806 41.0557C90.4554 38.5793 93.5834 36.1356 96.1901 33.7243C98.7968 31.3131 100.1 29.1952 100.1 27.3705C100.1 23.7211 99.9047 20.5279 99.5137 17.7908C99.1227 15.0538 98.0474 11.9257 96.2879 8.40665C94.5283 4.88759 92.0194 2.08537 88.761 0C96.8418 0.912349 102.837 3.81232 106.747 8.6999C110.657 13.5875 112.612 19.811 112.612 27.3705C112.612 31.5412 111.309 35.2558 108.702 38.5142C106.096 41.7726 102.968 44.4444 99.3182 46.5298C95.6688 48.6152 92.0194 50.6354 88.37 52.5904C84.7206 54.5455 81.5925 56.8589 78.9858 59.5308C76.3791 62.2027 75.0758 65.233 75.0758 68.6217ZM100.1 162.463C119.26 162.463 133.662 160.378 143.306 156.207C147.868 158.162 150.149 160.248 150.149 162.463C150.149 165.852 145.261 168.785 135.486 171.261C125.711 173.737 113.916 174.976 100.1 174.976C86.2846 174.976 74.4892 173.737 64.7141 171.261C54.9389 168.785 50.0513 165.852 50.0513 162.463C50.0513 160.248 52.3322 158.162 56.8939 156.207C66.5388 160.378 80.9409 162.463 100.1 162.463ZM37.5391 137.439C37.5391 135.223 40.3413 133.138 45.9457 131.183C58.067 135.354 76.1184 137.439 100.1 137.439C124.082 137.439 142.133 135.354 154.255 131.183C159.859 133.138 162.661 135.223 162.661 137.439C162.661 140.828 156.536 143.76 144.284 146.237C132.032 148.713 117.272 149.951 100.002 149.951C82.733 149.951 68.0051 148.713 55.8187 146.237C43.6323 143.76 37.5391 140.828 37.5391 137.439ZM25.0269 162.463C25.0269 167.025 28.383 171.228 35.0953 175.073C41.8076 178.918 50.9311 181.949 62.4658 184.164C74.0005 186.38 86.5453 187.488 100.1 187.488C113.655 187.488 126.2 186.38 137.735 184.164C149.269 181.949 158.393 178.918 165.105 175.073C171.817 171.228 175.174 167.025 175.174 162.463C175.174 161.03 174.783 159.596 174 158.162C191.465 162.854 200.198 168.459 200.198 174.976C200.198 179.537 195.734 183.741 186.806 187.586C177.878 191.43 165.724 194.461 150.345 196.676C134.965 198.892 118.217 200 100.1 200C81.9835 200 65.2354 198.892 49.8558 196.676C34.4762 194.461 22.3224 191.43 13.3944 187.586C4.46644 183.741 0.00244141 179.537 0.00244141 174.976C0.00244141 168.459 8.73493 162.854 26.1999 158.162C25.4179 159.596 25.0269 161.03 25.0269 162.463Z" fill="#2F3542"/>
</g>
<defs>
<clipPath id="clip0">
<rect width="200.2" height="200" fill="white"/>
</clipPath>
</defs>
</svg>
