<svg width="16" height="16" viewBox="0 0 16 16" fill="none" xmlns="http://www.w3.org/2000/svg">
<path d="M6.39551 7.31396C6.03418 7.31396 5.74951 7.63063 5.74951 8.0173C5.74951 8.40263 6.04085 8.72063 6.39551 8.72063C6.75618 8.72063 7.04085 8.40263 7.04085 8.0173C7.04818 7.62996 6.75618 7.31396 6.39551 7.31396ZM8.70751 7.31396C8.34618 7.31396 8.06151 7.63063 8.06151 8.0173C8.06151 8.40263 8.35285 8.72063 8.70751 8.72063C9.06818 8.72063 9.35285 8.40263 9.35285 8.0173C9.35218 7.62996 9.06818 7.31396 8.70751 7.31396Z" fill="#464646"/>
<path d="M11.7853 2H3.298C3.12711 2.00044 2.95798 2.03453 2.80026 2.10033C2.64254 2.16613 2.49933 2.26236 2.3788 2.38351C2.25827 2.50466 2.16278 2.64836 2.09779 2.80641C2.03279 2.96447 1.99957 3.13377 2 3.30467V11.8673C2 12.5893 2.58267 13.172 3.298 13.172H10.48L10.1433 11.9993L10.9547 12.7533L11.7207 13.4627L13.0833 14.6667V3.30467C13.0838 3.13377 13.0506 2.96447 12.9856 2.80641C12.9206 2.64836 12.8251 2.50466 12.7045 2.38351C12.584 2.26236 12.4408 2.16613 12.2831 2.10033C12.1254 2.03453 11.9562 2.00044 11.7853 2V2ZM9.34 10.2713C9.34 10.2713 9.112 9.99933 8.92267 9.75733C9.752 9.52267 10.0687 9.004 10.0687 9.004C9.80867 9.17467 9.562 9.296 9.34 9.37867C8.53179 9.71691 7.64176 9.80921 6.78134 9.644C6.46341 9.58155 6.15188 9.49005 5.85067 9.37067C5.69181 9.31032 5.53743 9.23881 5.38867 9.15667C5.36934 9.14267 5.35067 9.13733 5.332 9.12467C5.32202 9.11992 5.31316 9.1131 5.306 9.10467C5.192 9.042 5.12867 8.998 5.12867 8.998C5.12867 8.998 5.43267 9.50467 6.23734 9.74533C6.04734 9.98533 5.81267 10.2713 5.81267 10.2713C4.41334 10.2267 3.882 9.30867 3.882 9.30867C3.882 7.26933 4.794 5.61667 4.794 5.61667C5.706 4.932 6.57334 4.95133 6.57334 4.95133L6.63667 5.02733C5.49667 5.35733 4.97067 5.85733 4.97067 5.85733C4.97067 5.85733 5.11067 5.78133 5.34467 5.674C6.022 5.37667 6.56 5.294 6.782 5.27467C6.82 5.26867 6.852 5.262 6.89 5.262C7.98814 5.11401 9.10478 5.32271 10.0753 5.85733C10.0753 5.85733 9.57467 5.38267 8.498 5.05333L8.58667 4.952C8.58667 4.952 9.45467 4.93267 10.366 5.61733C10.366 5.61733 11.278 7.27 11.278 9.30933C11.278 9.30867 10.74 10.2267 9.34 10.2713V10.2713Z" fill="#464646"/>
</svg>
