<svg width="16" height="17" viewBox="0 0 16 17" fill="none" xmlns="http://www.w3.org/2000/svg">
<path d="M8.00089 0.192139C3.58038 0.190303 0 3.86623 0 8.40329C0 11.9911 2.23975 15.0409 5.35895 16.1609C5.77902 16.2693 5.71467 15.9626 5.71467 15.7533V14.3303C3.28902 14.6223 3.1907 12.9734 3.02804 12.698C2.69914 12.1214 1.92157 11.9746 2.15395 11.6991C2.70629 11.4072 3.26936 11.7726 3.9218 12.7623C4.3937 13.4802 5.31427 13.359 5.78081 13.2396C5.88269 12.8082 6.10077 12.4226 6.40107 12.1233C3.88783 11.6606 2.84035 10.0852 2.84035 8.21234C2.84035 7.30345 3.13172 6.46802 3.70372 5.79416C3.33907 4.6833 3.73768 3.73219 3.79131 3.59081C4.82985 3.49533 5.90951 4.35464 5.99352 4.42257C6.5834 4.25916 7.25729 4.17286 8.01162 4.17286C8.76952 4.17286 9.4452 4.26283 10.0404 4.42808C10.2424 4.27017 11.2434 3.53205 12.2087 3.62202C12.2605 3.7634 12.6502 4.69248 12.307 5.78865C12.8862 6.46435 13.1811 7.30713 13.1811 8.21785C13.1811 10.0944 12.1265 11.6716 9.60608 12.127C9.82196 12.345 9.99337 12.6051 10.1103 12.892C10.2272 13.1789 10.2873 13.4868 10.2871 13.7978V15.8635C10.3014 16.0287 10.2871 16.1921 10.5552 16.1921C13.7209 15.096 16 12.0241 16 8.40513C16 3.86623 12.4178 0.192139 8.00089 0.192139V0.192139Z" fill="#464646"/>
</svg>
