<svg width="16" height="16" viewBox="0 0 16 16" fill="none" xmlns="http://www.w3.org/2000/svg">
<path d="M11.2333 0H4.76594C3.50225 0.00148505 2.29076 0.504196 1.39727 1.39784C0.50378 2.29147 0.00127258 3.50305 0 4.76674L0 11.2341C0.00148505 12.4977 0.504196 13.7092 1.39784 14.6027C2.29147 15.4962 3.50305 15.9987 4.76674 16H11.2341C12.4977 15.9985 13.7092 15.4958 14.6027 14.6022C15.4962 13.7085 15.9987 12.4969 16 11.2333V4.76594C15.9985 3.50225 15.4958 2.29076 14.6022 1.39727C13.7085 0.50378 12.4969 0.00127258 11.2333 0V0ZM14.3908 11.2333C14.3908 11.6479 14.3091 12.0585 14.1504 12.4416C13.9918 12.8247 13.7592 13.1728 13.466 13.466C13.1728 13.7592 12.8247 13.9918 12.4416 14.1504C12.0585 14.3091 11.6479 14.3908 11.2333 14.3908H4.76594C3.92865 14.3906 3.12573 14.0578 2.53375 13.4657C1.94177 12.8736 1.60922 12.0705 1.60922 11.2333V4.76594C1.60943 3.92865 1.94219 3.12573 2.53432 2.53375C3.12645 1.94177 3.92945 1.60922 4.76674 1.60922H11.2341C12.0713 1.60943 12.8743 1.94219 13.4662 2.53432C14.0582 3.12645 14.3908 3.92945 14.3908 4.76674V11.2341V11.2333Z" fill="#464646"/>
<path d="M8.04328 3.86353C6.94646 3.86522 5.89505 4.30172 5.11955 5.07734C4.34405 5.85295 3.90773 6.9044 3.90625 8.00118C3.90752 9.09823 4.34385 10.15 5.11955 10.9258C5.89525 11.7016 6.94698 12.1381 8.04408 12.1396C9.14133 12.1384 10.1933 11.7019 10.9691 10.9261C11.745 10.1503 12.1814 9.09837 12.1827 8.00118C12.181 6.90412 11.7443 5.85252 10.9683 5.07701C10.1923 4.3015 9.14039 3.86539 8.04328 3.86433V3.86353ZM8.04328 10.5304C7.37267 10.5304 6.72953 10.264 6.25533 9.78985C5.78114 9.31568 5.51474 8.67256 5.51474 8.00198C5.51474 7.3314 5.78114 6.68828 6.25533 6.21411C6.72953 5.73993 7.37267 5.47355 8.04328 5.47355C8.71389 5.47355 9.35704 5.73993 9.83123 6.21411C10.3054 6.68828 10.5718 7.3314 10.5718 8.00198C10.5718 8.67256 10.3054 9.31568 9.83123 9.78985C9.35704 10.264 8.71389 10.5304 8.04328 10.5304V10.5304Z" fill="#464646"/>
<path d="M12.1246 4.88501C12.6721 4.88501 13.1159 4.44118 13.1159 3.89368C13.1159 3.34618 12.6721 2.90234 12.1246 2.90234C11.5771 2.90234 11.1333 3.34618 11.1333 3.89368C11.1333 4.44118 11.5771 4.88501 12.1246 4.88501Z" fill="#464646"/>
</svg>
