<svg width="2901" height="1220" viewBox="0 0 2901 1220" fill="none" xmlns="http://www.w3.org/2000/svg">
<path d="M76 507.5H187.75L279.25 741.5H284.5L376.75 507.5H487.75L329.5 875H232.75L76 507.5ZM869.494 786.5C852.494 816.5 829.494 840.75 800.494 859.25C771.994 877.75 736.994 887 695.494 887C667.494 887 641.494 882.25 617.494 872.75C593.994 862.75 573.494 849 555.994 831.5C538.494 814 524.744 793.5 514.744 770C505.244 746 500.494 719.75 500.494 691.25C500.494 664.75 505.244 639.75 514.744 616.25C524.244 592.25 537.494 571.5 554.494 554C571.494 536 591.494 521.75 614.494 511.25C637.994 500.75 663.744 495.5 691.744 495.5C721.244 495.5 747.494 500.5 770.494 510.5C793.494 520 812.744 533.5 828.244 551C843.744 568 855.494 588.25 863.494 611.75C871.494 635.25 875.494 660.75 875.494 688.25C875.494 691.75 875.494 694.75 875.494 697.25C874.994 700.25 874.744 703 874.744 705.5C874.244 708 873.994 710.75 873.994 713.75H597.244C599.244 728.75 603.244 741.75 609.244 752.75C615.744 763.25 623.494 772.25 632.494 779.75C641.994 786.75 652.244 792 663.244 795.5C674.244 798.5 685.494 800 696.994 800C719.494 800 737.994 795 752.494 785C767.494 774.5 779.244 761.5 787.744 746L869.494 786.5ZM780.244 644C779.744 637.5 777.494 630.25 773.494 622.25C769.994 614.25 764.494 606.75 756.994 599.75C749.994 592.75 740.994 587 729.994 582.5C719.494 578 706.744 575.75 691.744 575.75C670.744 575.75 652.244 581.75 636.244 593.75C620.244 605.75 608.994 622.5 602.494 644H780.244ZM938.242 507.5H1030.49V558.5H1036.49C1040.99 549.5 1046.99 541.25 1054.49 533.75C1061.99 526.25 1070.24 519.75 1079.24 514.25C1088.74 508.75 1098.74 504.5 1109.24 501.5C1120.24 498.5 1130.99 497 1141.49 497C1154.49 497 1165.49 498.25 1174.49 500.75C1183.99 503.25 1191.99 506.5 1198.49 510.5L1172.24 599.75C1166.24 596.75 1159.49 594.5 1151.99 593C1144.99 591 1136.24 590 1125.74 590C1112.24 590 1099.99 592.75 1088.99 598.25C1077.99 603.25 1068.49 610.5 1060.49 620C1052.99 629.5 1046.99 640.75 1042.49 653.75C1038.49 666.25 1036.49 680 1036.49 695V875H938.242V507.5ZM1298.41 454.25C1289.91 454.25 1281.66 452.75 1273.66 449.75C1266.16 446.25 1259.41 441.75 1253.41 436.25C1247.91 430.25 1243.41 423.5 1239.91 416C1236.91 408.5 1235.41 400.25 1235.41 391.25C1235.41 382.25 1236.91 374 1239.91 366.5C1243.41 359 1247.91 352.5 1253.41 347C1259.41 341 1266.16 336.5 1273.66 333.5C1281.66 330 1289.91 328.25 1298.41 328.25C1315.91 328.25 1330.91 334.5 1343.41 347C1355.91 359 1362.16 373.75 1362.16 391.25C1362.16 408.75 1355.91 423.75 1343.41 436.25C1330.91 448.25 1315.91 454.25 1298.41 454.25ZM1249.66 875V507.5H1347.91V875H1249.66ZM1474.59 591.5H1410.09V507.5H1474.59V395H1572.84V507.5H1662.84V591.5H1572.84V734C1572.84 742.5 1573.59 750.5 1575.09 758C1577.09 765 1580.59 771 1585.59 776C1592.59 784 1602.59 788 1615.59 788C1624.09 788 1630.84 787.25 1635.84 785.75C1640.84 783.75 1645.59 781.25 1650.09 778.25L1677.84 864.5C1666.34 870 1653.84 874 1640.34 876.5C1627.34 879.5 1612.84 881 1596.84 881C1578.34 881 1561.59 878.25 1546.59 872.75C1532.09 866.75 1519.84 858.75 1509.84 848.75C1486.34 826.25 1474.59 794.25 1474.59 752.75V591.5ZM1854.28 857L1699.78 507.5H1811.53L1904.53 730.25H1909.78L1999.03 507.5H2108.53L1878.28 1037H1772.53L1854.28 857ZM2268.83 857L2114.33 507.5H2226.08L2319.08 730.25H2324.33L2413.58 507.5H2523.08L2292.83 1037H2187.08L2268.83 857ZM2608.38 591.5H2543.88V507.5H2608.38V395H2706.63V507.5H2796.63V591.5H2706.63V734C2706.63 742.5 2707.38 750.5 2708.88 758C2710.88 765 2714.38 771 2719.38 776C2726.38 784 2736.38 788 2749.38 788C2757.88 788 2764.63 787.25 2769.63 785.75C2774.63 783.75 2779.38 781.25 2783.88 778.25L2811.63 864.5C2800.13 870 2787.63 874 2774.13 876.5C2761.13 879.5 2746.63 881 2730.63 881C2712.13 881 2695.38 878.25 2680.38 872.75C2665.88 866.75 2653.63 858.75 2643.63 848.75C2620.13 826.25 2608.38 794.25 2608.38 752.75V591.5Z" fill="white"/>
<path d="M76 507.5V492.5H53.2946L62.2027 513.385L76 507.5ZM187.75 507.5L201.72 502.037L197.991 492.5H187.75V507.5ZM279.25 741.5L265.28 746.963L269.009 756.5H279.25V741.5ZM284.5 741.5V756.5H294.71L298.455 747.001L284.5 741.5ZM376.75 507.5V492.5H366.54L362.795 501.999L376.75 507.5ZM487.75 507.5L501.527 513.433L510.541 492.5H487.75V507.5ZM329.5 875V890H339.372L343.277 880.933L329.5 875ZM232.75 875L218.953 880.885L222.84 890H232.75V875ZM76 522.5H187.75V492.5H76V522.5ZM173.78 512.963L265.28 746.963L293.22 736.037L201.72 502.037L173.78 512.963ZM279.25 756.5H284.5V726.5H279.25V756.5ZM298.455 747.001L390.705 513.001L362.795 501.999L270.545 735.999L298.455 747.001ZM376.75 522.5H487.75V492.5H376.75V522.5ZM473.973 501.567L315.723 869.067L343.277 880.933L501.527 513.433L473.973 501.567ZM329.5 860H232.75V890H329.5V860ZM246.547 869.115L89.7974 501.615L62.2027 513.385L218.953 880.885L246.547 869.115ZM869.494 786.5L882.545 793.895L890.363 780.099L876.153 773.059L869.494 786.5ZM800.494 859.25L792.427 846.604L792.377 846.636L792.327 846.668L800.494 859.25ZM617.494 872.75L611.621 886.552L611.796 886.627L611.973 886.697L617.494 872.75ZM514.744 770L500.797 775.521L500.867 775.698L500.942 775.873L514.744 770ZM514.744 616.25L528.651 621.872L528.671 621.821L528.691 621.771L514.744 616.25ZM554.494 554L565.253 564.452L565.327 564.376L565.399 564.299L554.494 554ZM614.494 511.25L608.375 497.555L608.32 497.58L608.265 497.605L614.494 511.25ZM770.494 510.5L764.513 524.256L764.64 524.311L764.768 524.364L770.494 510.5ZM828.244 551L817.015 560.946L817.087 561.026L817.16 561.106L828.244 551ZM863.494 611.75L877.694 606.916L877.694 606.916L863.494 611.75ZM875.494 697.25L890.29 699.716L890.494 698.491V697.25H875.494ZM874.744 705.5L889.453 708.442L889.744 706.985V705.5H874.744ZM873.994 713.75V728.75H888.994V713.75H873.994ZM597.244 713.75V698.75H580.111L582.376 715.732L597.244 713.75ZM609.244 752.75L596.076 759.933L596.273 760.295L596.49 760.645L609.244 752.75ZM632.494 779.75L622.891 791.273L623.236 791.56L623.596 791.826L632.494 779.75ZM663.244 795.5L658.696 809.794L658.995 809.889L659.297 809.971L663.244 795.5ZM752.494 785L761.01 797.348L761.053 797.318L761.096 797.288L752.494 785ZM787.744 746L794.403 732.559L781.51 726.172L774.592 738.788L787.744 746ZM780.244 644V659H796.442L795.2 642.85L780.244 644ZM773.494 622.25L759.752 628.262L759.906 628.614L760.078 628.958L773.494 622.25ZM756.994 599.75L746.388 610.357L746.57 610.539L746.759 610.716L756.994 599.75ZM729.994 582.5L724.085 596.287L724.2 596.336L724.315 596.383L729.994 582.5ZM636.244 593.75L627.244 581.75L627.244 581.75L636.244 593.75ZM602.494 644L588.136 639.659L582.289 659H602.494V644ZM856.444 779.105C840.648 806.979 819.357 829.425 792.427 846.604L808.561 871.896C839.631 852.075 864.34 826.021 882.545 793.895L856.444 779.105ZM792.327 846.668C766.749 863.272 734.741 872 695.494 872V902C739.247 902 777.239 892.228 808.661 871.832L792.327 846.668ZM695.494 872C669.223 872 645.114 867.55 623.015 858.803L611.973 886.697C637.875 896.95 665.765 902 695.494 902V872ZM623.367 858.948C601.578 849.675 582.699 836.991 566.601 820.893L545.388 842.107C564.29 861.009 586.411 875.825 611.621 886.552L623.367 858.948ZM566.601 820.893C550.503 804.795 537.819 785.916 528.546 764.127L500.942 775.873C511.67 801.084 526.485 823.204 545.388 842.107L566.601 820.893ZM528.691 764.479C519.956 742.411 515.494 718.057 515.494 691.25H485.494C485.494 721.443 490.532 749.589 500.797 775.521L528.691 764.479ZM515.494 691.25C515.494 666.588 519.906 643.505 528.651 621.872L500.837 610.628C490.583 635.995 485.494 662.912 485.494 691.25H515.494ZM528.691 621.771C537.507 599.5 549.709 580.453 565.253 564.452L543.735 543.548C525.279 562.547 510.982 585 500.797 610.729L528.691 621.771ZM565.399 564.299C581.043 547.736 599.445 534.609 620.724 524.895L608.265 497.605C583.543 508.891 561.946 524.264 543.589 543.701L565.399 564.299ZM620.613 524.945C642.024 515.379 665.666 510.5 691.744 510.5V480.5C661.823 480.5 633.964 486.121 608.375 497.555L620.613 524.945ZM691.744 510.5C719.544 510.5 743.703 515.208 764.513 524.256L776.475 496.744C751.285 485.792 722.944 480.5 691.744 480.5V510.5ZM764.768 524.364C785.799 533.051 803.124 545.262 817.015 560.946L839.473 541.054C822.364 521.738 801.19 506.949 776.221 496.636L764.768 524.364ZM817.16 561.106C831.163 576.464 841.906 594.881 849.294 616.584L877.694 606.916C869.082 581.619 856.326 559.536 839.329 540.894L817.16 561.106ZM849.294 616.584C856.711 638.369 860.494 662.218 860.494 688.25H890.494C890.494 659.282 886.278 632.131 877.694 606.916L849.294 616.584ZM860.494 688.25C860.494 688.257 860.494 688.264 860.494 688.27C860.494 688.277 860.494 688.284 860.494 688.291C860.494 688.298 860.494 688.305 860.494 688.311C860.494 688.318 860.494 688.325 860.494 688.332C860.494 688.339 860.494 688.346 860.494 688.352C860.494 688.359 860.494 688.366 860.494 688.373C860.494 688.38 860.494 688.386 860.494 688.393C860.494 688.4 860.494 688.407 860.494 688.414C860.494 688.42 860.494 688.427 860.494 688.434C860.494 688.441 860.494 688.448 860.494 688.454C860.494 688.461 860.494 688.468 860.494 688.475C860.494 688.482 860.494 688.488 860.494 688.495C860.494 688.502 860.494 688.509 860.494 688.516C860.494 688.522 860.494 688.529 860.494 688.536C860.494 688.543 860.494 688.55 860.494 688.556C860.494 688.563 860.494 688.57 860.494 688.577C860.494 688.583 860.494 688.59 860.494 688.597C860.494 688.604 860.494 688.611 860.494 688.617C860.494 688.624 860.494 688.631 860.494 688.638C860.494 688.644 860.494 688.651 860.494 688.658C860.494 688.665 860.494 688.671 860.494 688.678C860.494 688.685 860.494 688.692 860.494 688.698C860.494 688.705 860.494 688.712 860.494 688.719C860.494 688.725 860.494 688.732 860.494 688.739C860.494 688.746 860.494 688.752 860.494 688.759C860.494 688.766 860.494 688.773 860.494 688.779C860.494 688.786 860.494 688.793 860.494 688.8C860.494 688.806 860.494 688.813 860.494 688.82C860.494 688.826 860.494 688.833 860.494 688.84C860.494 688.847 860.494 688.853 860.494 688.86C860.494 688.867 860.494 688.874 860.494 688.88C860.494 688.887 860.494 688.894 860.494 688.9C860.494 688.907 860.494 688.914 860.494 688.921C860.494 688.927 860.494 688.934 860.494 688.941C860.494 688.947 860.494 688.954 860.494 688.961C860.494 688.967 860.494 688.974 860.494 688.981C860.494 688.988 860.494 688.994 860.494 689.001C860.494 689.008 860.494 689.014 860.494 689.021C860.494 689.028 860.494 689.034 860.494 689.041C860.494 689.048 860.494 689.054 860.494 689.061C860.494 689.068 860.494 689.075 860.494 689.081C860.494 689.088 860.494 689.095 860.494 689.101C860.494 689.108 860.494 689.115 860.494 689.121C860.494 689.128 860.494 689.135 860.494 689.141C860.494 689.148 860.494 689.155 860.494 689.161C860.494 689.168 860.494 689.175 860.494 689.181C860.494 689.188 860.494 689.195 860.494 689.201C860.494 689.208 860.494 689.215 860.494 689.221C860.494 689.228 860.494 689.234 860.494 689.241C860.494 689.248 860.494 689.254 860.494 689.261C860.494 689.268 860.494 689.274 860.494 689.281C860.494 689.288 860.494 689.294 860.494 689.301C860.494 689.308 860.494 689.314 860.494 689.321C860.494 689.327 860.494 689.334 860.494 689.341C860.494 689.347 860.494 689.354 860.494 689.361C860.494 689.367 860.494 689.374 860.494 689.38C860.494 689.387 860.494 689.394 860.494 689.4C860.494 689.407 860.494 689.414 860.494 689.42C860.494 689.427 860.494 689.433 860.494 689.44C860.494 689.447 860.494 689.453 860.494 689.46C860.494 689.466 860.494 689.473 860.494 689.48C860.494 689.486 860.494 689.493 860.494 689.499C860.494 689.506 860.494 689.513 860.494 689.519C860.494 689.526 860.494 689.532 860.494 689.539C860.494 689.546 860.494 689.552 860.494 689.559C860.494 689.565 860.494 689.572 860.494 689.579C860.494 689.585 860.494 689.592 860.494 689.598C860.494 689.605 860.494 689.611 860.494 689.618C860.494 689.625 860.494 689.631 860.494 689.638C860.494 689.644 860.494 689.651 860.494 689.657C860.494 689.664 860.494 689.671 860.494 689.677C860.494 689.684 860.494 689.69 860.494 689.697C860.494 689.703 860.494 689.71 860.494 689.717C860.494 689.723 860.494 689.73 860.494 689.736C860.494 689.743 860.494 689.749 860.494 689.756C860.494 689.762 860.494 689.769 860.494 689.776C860.494 689.782 860.494 689.789 860.494 689.795C860.494 689.802 860.494 689.808 860.494 689.815C860.494 689.821 860.494 689.828 860.494 689.834C860.494 689.841 860.494 689.847 860.494 689.854C860.494 689.861 860.494 689.867 860.494 689.874C860.494 689.88 860.494 689.887 860.494 689.893C860.494 689.9 860.494 689.906 860.494 689.913C860.494 689.919 860.494 689.926 860.494 689.932C860.494 689.939 860.494 689.945 860.494 689.952C860.494 689.958 860.494 689.965 860.494 689.971C860.494 689.978 860.494 689.984 860.494 689.991C860.494 689.997 860.494 690.004 860.494 690.01C860.494 690.017 860.494 690.023 860.494 690.03C860.494 690.036 860.494 690.043 860.494 690.049C860.494 690.056 860.494 690.062 860.494 690.069C860.494 690.075 860.494 690.082 860.494 690.088C860.494 690.095 860.494 690.101 860.494 690.108C860.494 690.114 860.494 690.121 860.494 690.127C860.494 690.134 860.494 690.14 860.494 690.147C860.494 690.153 860.494 690.16 860.494 690.166C860.494 690.172 860.494 690.179 860.494 690.185C860.494 690.192 860.494 690.198 860.494 690.205C860.494 690.211 860.494 690.218 860.494 690.224C860.494 690.231 860.494 690.237 860.494 690.244C860.494 690.25 860.494 690.256 860.494 690.263C860.494 690.269 860.494 690.276 860.494 690.282C860.494 690.289 860.494 690.295 860.494 690.302C860.494 690.308 860.494 690.314 860.494 690.321C860.494 690.327 860.494 690.334 860.494 690.34C860.494 690.347 860.494 690.353 860.494 690.36C860.494 690.366 860.494 690.372 860.494 690.379C860.494 690.385 860.494 690.392 860.494 690.398C860.494 690.405 860.494 690.411 860.494 690.417C860.494 690.424 860.494 690.43 860.494 690.437C860.494 690.443 860.494 690.449 860.494 690.456C860.494 690.462 860.494 690.469 860.494 690.475C860.494 690.481 860.494 690.488 860.494 690.494C860.494 690.501 860.494 690.507 860.494 690.514C860.494 690.52 860.494 690.526 860.494 690.533C860.494 690.539 860.494 690.546 860.494 690.552C860.494 690.558 860.494 690.565 860.494 690.571C860.494 690.577 860.494 690.584 860.494 690.59C860.494 690.597 860.494 690.603 860.494 690.609C860.494 690.616 860.494 690.622 860.494 690.629C860.494 690.635 860.494 690.641 860.494 690.648C860.494 690.654 860.494 690.66 860.494 690.667C860.494 690.673 860.494 690.68 860.494 690.686C860.494 690.692 860.494 690.699 860.494 690.705C860.494 690.711 860.494 690.718 860.494 690.724C860.494 690.73 860.494 690.737 860.494 690.743C860.494 690.749 860.494 690.756 860.494 690.762C860.494 690.769 860.494 690.775 860.494 690.781C860.494 690.788 860.494 690.794 860.494 690.8C860.494 690.807 860.494 690.813 860.494 690.819C860.494 690.826 860.494 690.832 860.494 690.838C860.494 690.845 860.494 690.851 860.494 690.857C860.494 690.864 860.494 690.87 860.494 690.876C860.494 690.883 860.494 690.889 860.494 690.895C860.494 690.902 860.494 690.908 860.494 690.914C860.494 690.921 860.494 690.927 860.494 690.933C860.494 690.94 860.494 690.946 860.494 690.952C860.494 690.958 860.494 690.965 860.494 690.971C860.494 690.977 860.494 690.984 860.494 690.99C860.494 690.996 860.494 691.003 860.494 691.009C860.494 691.015 860.494 691.022 860.494 691.028C860.494 691.034 860.494 691.04 860.494 691.047C860.494 691.053 860.494 691.059 860.494 691.066C860.494 691.072 860.494 691.078 860.494 691.084C860.494 691.091 860.494 691.097 860.494 691.103C860.494 691.11 860.494 691.116 860.494 691.122C860.494 691.128 860.494 691.135 860.494 691.141C860.494 691.147 860.494 691.154 860.494 691.16C860.494 691.166 860.494 691.172 860.494 691.179C860.494 691.185 860.494 691.191 860.494 691.197C860.494 691.204 860.494 691.21 860.494 691.216C860.494 691.222 860.494 691.229 860.494 691.235C860.494 691.241 860.494 691.247 860.494 691.254C860.494 691.26 860.494 691.266 860.494 691.272C860.494 691.279 860.494 691.285 860.494 691.291C860.494 691.297 860.494 691.304 860.494 691.31C860.494 691.316 860.494 691.322 860.494 691.329C860.494 691.335 860.494 691.341 860.494 691.347C860.494 691.354 860.494 691.36 860.494 691.366C860.494 691.372 860.494 691.379 860.494 691.385C860.494 691.391 860.494 691.397 860.494 691.403C860.494 691.41 860.494 691.416 860.494 691.422C860.494 691.428 860.494 691.435 860.494 691.441C860.494 691.447 860.494 691.453 860.494 691.459C860.494 691.466 860.494 691.472 860.494 691.478C860.494 691.484 860.494 691.49 860.494 691.497C860.494 691.503 860.494 691.509 860.494 691.515C860.494 691.521 860.494 691.528 860.494 691.534C860.494 691.54 860.494 691.546 860.494 691.552C860.494 691.559 860.494 691.565 860.494 691.571C860.494 691.577 860.494 691.583 860.494 691.59C860.494 691.596 860.494 691.602 860.494 691.608C860.494 691.614 860.494 691.62 860.494 691.627C860.494 691.633 860.494 691.639 860.494 691.645C860.494 691.651 860.494 691.657 860.494 691.664C860.494 691.67 860.494 691.676 860.494 691.682C860.494 691.688 860.494 691.694 860.494 691.701C860.494 691.707 860.494 691.713 860.494 691.719C860.494 691.725 860.494 691.731 860.494 691.738C860.494 691.744 860.494 691.75 860.494 691.756C860.494 691.762 860.494 691.768 860.494 691.774C860.494 691.781 860.494 691.787 860.494 691.793C860.494 691.799 860.494 691.805 860.494 691.811C860.494 691.817 860.494 691.824 860.494 691.83C860.494 691.836 860.494 691.842 860.494 691.848C860.494 691.854 860.494 691.86 860.494 691.866C860.494 691.873 860.494 691.879 860.494 691.885C860.494 691.891 860.494 691.897 860.494 691.903C860.494 691.909 860.494 691.915 860.494 691.922C860.494 691.928 860.494 691.934 860.494 691.94C860.494 691.946 860.494 691.952 860.494 691.958C860.494 691.964 860.494 691.97 860.494 691.977C860.494 691.983 860.494 691.989 860.494 691.995C860.494 692.001 860.494 692.007 860.494 692.013C860.494 692.019 860.494 692.025 860.494 692.031C860.494 692.038 860.494 692.044 860.494 692.05C860.494 692.056 860.494 692.062 860.494 692.068C860.494 692.074 860.494 692.08 860.494 692.086C860.494 692.092 860.494 692.098 860.494 692.104C860.494 692.111 860.494 692.117 860.494 692.123C860.494 692.129 860.494 692.135 860.494 692.141C860.494 692.147 860.494 692.153 860.494 692.159C860.494 692.165 860.494 692.171 860.494 692.177C860.494 692.183 860.494 692.189 860.494 692.195C860.494 692.202 860.494 692.208 860.494 692.214C860.494 692.22 860.494 692.226 860.494 692.232C860.494 692.238 860.494 692.244 860.494 692.25C860.494 692.256 860.494 692.262 860.494 692.268C860.494 692.274 860.494 692.28 860.494 692.286C860.494 692.292 860.494 692.298 860.494 692.304C860.494 692.31 860.494 692.316 860.494 692.322C860.494 692.328 860.494 692.334 860.494 692.34C860.494 692.347 860.494 692.353 860.494 692.359C860.494 692.365 860.494 692.371 860.494 692.377C860.494 692.383 860.494 692.389 860.494 692.395C860.494 692.401 860.494 692.407 860.494 692.413C860.494 692.419 860.494 692.425 860.494 692.431C860.494 692.437 860.494 692.443 860.494 692.449C860.494 692.455 860.494 692.461 860.494 692.467C860.494 692.473 860.494 692.479 860.494 692.485C860.494 692.491 860.494 692.497 860.494 692.503C860.494 692.509 860.494 692.515 860.494 692.521C860.494 692.527 860.494 692.533 860.494 692.539C860.494 692.545 860.494 692.551 860.494 692.557C860.494 692.563 860.494 692.569 860.494 692.575C860.494 692.581 860.494 692.587 860.494 692.592C860.494 692.598 860.494 692.604 860.494 692.61C860.494 692.616 860.494 692.622 860.494 692.628C860.494 692.634 860.494 692.64 860.494 692.646C860.494 692.652 860.494 692.658 860.494 692.664C860.494 692.67 860.494 692.676 860.494 692.682C860.494 692.688 860.494 692.694 860.494 692.7C860.494 692.706 860.494 692.712 860.494 692.718C860.494 692.724 860.494 692.73 860.494 692.736C860.494 692.741 860.494 692.747 860.494 692.753C860.494 692.759 860.494 692.765 860.494 692.771C860.494 692.777 860.494 692.783 860.494 692.789C860.494 692.795 860.494 692.801 860.494 692.807C860.494 692.813 860.494 692.819 860.494 692.825C860.494 692.83 860.494 692.836 860.494 692.842C860.494 692.848 860.494 692.854 860.494 692.86C860.494 692.866 860.494 692.872 860.494 692.878C860.494 692.884 860.494 692.89 860.494 692.896C860.494 692.901 860.494 692.907 860.494 692.913C860.494 692.919 860.494 692.925 860.494 692.931C860.494 692.937 860.494 692.943 860.494 692.949C860.494 692.955 860.494 692.96 860.494 692.966C860.494 692.972 860.494 692.978 860.494 692.984C860.494 692.99 860.494 692.996 860.494 693.002C860.494 693.008 860.494 693.013 860.494 693.019C860.494 693.025 860.494 693.031 860.494 693.037C860.494 693.043 860.494 693.049 860.494 693.055C860.494 693.06 860.494 693.066 860.494 693.072C860.494 693.078 860.494 693.084 860.494 693.09C860.494 693.096 860.494 693.102 860.494 693.107C860.494 693.113 860.494 693.119 860.494 693.125C860.494 693.131 860.494 693.137 860.494 693.143C860.494 693.148 860.494 693.154 860.494 693.16C860.494 693.166 860.494 693.172 860.494 693.178C860.494 693.184 860.494 693.189 860.494 693.195C860.494 693.201 860.494 693.207 860.494 693.213C860.494 693.219 860.494 693.224 860.494 693.23C860.494 693.236 860.494 693.242 860.494 693.248C860.494 693.254 860.494 693.259 860.494 693.265C860.494 693.271 860.494 693.277 860.494 693.283C860.494 693.289 860.494 693.294 860.494 693.3C860.494 693.306 860.494 693.312 860.494 693.318C860.494 693.323 860.494 693.329 860.494 693.335C860.494 693.341 860.494 693.347 860.494 693.353C860.494 693.358 860.494 693.364 860.494 693.37C860.494 693.376 860.494 693.382 860.494 693.387C860.494 693.393 860.494 693.399 860.494 693.405C860.494 693.411 860.494 693.416 860.494 693.422C860.494 693.428 860.494 693.434 860.494 693.44C860.494 693.445 860.494 693.451 860.494 693.457C860.494 693.463 860.494 693.468 860.494 693.474C860.494 693.48 860.494 693.486 860.494 693.492C860.494 693.497 860.494 693.503 860.494 693.509C860.494 693.515 860.494 693.52 860.494 693.526C860.494 693.532 860.494 693.538 860.494 693.544C860.494 693.549 860.494 693.555 860.494 693.561C860.494 693.567 860.494 693.572 860.494 693.578C860.494 693.584 860.494 693.59 860.494 693.595C860.494 693.601 860.494 693.607 860.494 693.613C860.494 693.618 860.494 693.624 860.494 693.63C860.494 693.636 860.494 693.641 860.494 693.647C860.494 693.653 860.494 693.659 860.494 693.664C860.494 693.67 860.494 693.676 860.494 693.682C860.494 693.687 860.494 693.693 860.494 693.699C860.494 693.705 860.494 693.71 860.494 693.716C860.494 693.722 860.494 693.727 860.494 693.733C860.494 693.739 860.494 693.745 860.494 693.75C860.494 693.756 860.494 693.762 860.494 693.768C860.494 693.773 860.494 693.779 860.494 693.785C860.494 693.79 860.494 693.796 860.494 693.802C860.494 693.808 860.494 693.813 860.494 693.819C860.494 693.825 860.494 693.83 860.494 693.836C860.494 693.842 860.494 693.847 860.494 693.853C860.494 693.859 860.494 693.865 860.494 693.87C860.494 693.876 860.494 693.882 860.494 693.887C860.494 693.893 860.494 693.899 860.494 693.904C860.494 693.91 860.494 693.916 860.494 693.921C860.494 693.927 860.494 693.933 860.494 693.939C860.494 693.944 860.494 693.95 860.494 693.956C860.494 693.961 860.494 693.967 860.494 693.973C860.494 693.978 860.494 693.984 860.494 693.99C860.494 693.995 860.494 694.001 860.494 694.007C860.494 694.012 860.494 694.018 860.494 694.024C860.494 694.029 860.494 694.035 860.494 694.041C860.494 694.046 860.494 694.052 860.494 694.058C860.494 694.063 860.494 694.069 860.494 694.074C860.494 694.08 860.494 694.086 860.494 694.091C860.494 694.097 860.494 694.103 860.494 694.108C860.494 694.114 860.494 694.12 860.494 694.125C860.494 694.131 860.494 694.137 860.494 694.142C860.494 694.148 860.494 694.153 860.494 694.159C860.494 694.165 860.494 694.17 860.494 694.176C860.494 694.182 860.494 694.187 860.494 694.193C860.494 694.198 860.494 694.204 860.494 694.21C860.494 694.215 860.494 694.221 860.494 694.227C860.494 694.232 860.494 694.238 860.494 694.243C860.494 694.249 860.494 694.255 860.494 694.26C860.494 694.266 860.494 694.271 860.494 694.277C860.494 694.283 860.494 694.288 860.494 694.294C860.494 694.299 860.494 694.305 860.494 694.311C860.494 694.316 860.494 694.322 860.494 694.327C860.494 694.333 860.494 694.339 860.494 694.344C860.494 694.35 860.494 694.355 860.494 694.361C860.494 694.367 860.494 694.372 860.494 694.378C860.494 694.383 860.494 694.389 860.494 694.394C860.494 694.4 860.494 694.406 860.494 694.411C860.494 694.417 860.494 694.422 860.494 694.428C860.494 694.433 860.494 694.439 860.494 694.445C860.494 694.45 860.494 694.456 860.494 694.461C860.494 694.467 860.494 694.472 860.494 694.478C860.494 694.484 860.494 694.489 860.494 694.495C860.494 694.5 860.494 694.506 860.494 694.511C860.494 694.517 860.494 694.522 860.494 694.528C860.494 694.533 860.494 694.539 860.494 694.545C860.494 694.55 860.494 694.556 860.494 694.561C860.494 694.567 860.494 694.572 860.494 694.578C860.494 694.583 860.494 694.589 860.494 694.594C860.494 694.6 860.494 694.605 860.494 694.611C860.494 694.617 860.494 694.622 860.494 694.628C860.494 694.633 860.494 694.639 860.494 694.644C860.494 694.65 860.494 694.655 860.494 694.661C860.494 694.666 860.494 694.672 860.494 694.677C860.494 694.683 860.494 694.688 860.494 694.694C860.494 694.699 860.494 694.705 860.494 694.71C860.494 694.716 860.494 694.721 860.494 694.727C860.494 694.732 860.494 694.738 860.494 694.743C860.494 694.749 860.494 694.754 860.494 694.76C860.494 694.765 860.494 694.771 860.494 694.776C860.494 694.782 860.494 694.787 860.494 694.793C860.494 694.798 860.494 694.804 860.494 694.809C860.494 694.815 860.494 694.82 860.494 694.826C860.494 694.831 860.494 694.837 860.494 694.842C860.494 694.847 860.494 694.853 860.494 694.858C860.494 694.864 860.494 694.869 860.494 694.875C860.494 694.88 860.494 694.886 860.494 694.891C860.494 694.897 860.494 694.902 860.494 694.908C860.494 694.913 860.494 694.919 860.494 694.924C860.494 694.929 860.494 694.935 860.494 694.94C860.494 694.946 860.494 694.951 860.494 694.957C860.494 694.962 860.494 694.968 860.494 694.973C860.494 694.978 860.494 694.984 860.494 694.989C860.494 694.995 860.494 695 860.494 695.006C860.494 695.011 860.494 695.017 860.494 695.022C860.494 695.027 860.494 695.033 860.494 695.038C860.494 695.044 860.494 695.049 860.494 695.055C860.494 695.06 860.494 695.065 860.494 695.071C860.494 695.076 860.494 695.082 860.494 695.087C860.494 695.092 860.494 695.098 860.494 695.103C860.494 695.109 860.494 695.114 860.494 695.12C860.494 695.125 860.494 695.13 860.494 695.136C860.494 695.141 860.494 695.147 860.494 695.152C860.494 695.157 860.494 695.163 860.494 695.168C860.494 695.174 860.494 695.179 860.494 695.184C860.494 695.19 860.494 695.195 860.494 695.201C860.494 695.206 860.494 695.211 860.494 695.217C860.494 695.222 860.494 695.227 860.494 695.233C860.494 695.238 860.494 695.244 860.494 695.249C860.494 695.254 860.494 695.26 860.494 695.265C860.494 695.27 860.494 695.276 860.494 695.281C860.494 695.287 860.494 695.292 860.494 695.297C860.494 695.303 860.494 695.308 860.494 695.313C860.494 695.319 860.494 695.324 860.494 695.33C860.494 695.335 860.494 695.34 860.494 695.346C860.494 695.351 860.494 695.356 860.494 695.362C860.494 695.367 860.494 695.372 860.494 695.378C860.494 695.383 860.494 695.388 860.494 695.394C860.494 695.399 860.494 695.404 860.494 695.41C860.494 695.415 860.494 695.42 860.494 695.426C860.494 695.431 860.494 695.436 860.494 695.442C860.494 695.447 860.494 695.452 860.494 695.458C860.494 695.463 860.494 695.468 860.494 695.474C860.494 695.479 860.494 695.484 860.494 695.49C860.494 695.495 860.494 695.5 860.494 695.506C860.494 695.511 860.494 695.516 860.494 695.522C860.494 695.527 860.494 695.532 860.494 695.538C860.494 695.543 860.494 695.548 860.494 695.554C860.494 695.559 860.494 695.564 860.494 695.569C860.494 695.575 860.494 695.58 860.494 695.585C860.494 695.591 860.494 695.596 860.494 695.601C860.494 695.607 860.494 695.612 860.494 695.617C860.494 695.622 860.494 695.628 860.494 695.633C860.494 695.638 860.494 695.644 860.494 695.649C860.494 695.654 860.494 695.659 860.494 695.665C860.494 695.67 860.494 695.675 860.494 695.68C860.494 695.686 860.494 695.691 860.494 695.696C860.494 695.702 860.494 695.707 860.494 695.712C860.494 695.717 860.494 695.723 860.494 695.728C860.494 695.733 860.494 695.738 860.494 695.744C860.494 695.749 860.494 695.754 860.494 695.759C860.494 695.765 860.494 695.77 860.494 695.775C860.494 695.781 860.494 695.786 860.494 695.791C860.494 695.796 860.494 695.801 860.494 695.807C860.494 695.812 860.494 695.817 860.494 695.822C860.494 695.828 860.494 695.833 860.494 695.838C860.494 695.843 860.494 695.849 860.494 695.854C860.494 695.859 860.494 695.864 860.494 695.87C860.494 695.875 860.494 695.88 860.494 695.885C860.494 695.891 860.494 695.896 860.494 695.901C860.494 695.906 860.494 695.911 860.494 695.917C860.494 695.922 860.494 695.927 860.494 695.932C860.494 695.937 860.494 695.943 860.494 695.948C860.494 695.953 860.494 695.958 860.494 695.964C860.494 695.969 860.494 695.974 860.494 695.979C860.494 695.984 860.494 695.99 860.494 695.995C860.494 696 860.494 696.005 860.494 696.01C860.494 696.016 860.494 696.021 860.494 696.026C860.494 696.031 860.494 696.036 860.494 696.041C860.494 696.047 860.494 696.052 860.494 696.057C860.494 696.062 860.494 696.067 860.494 696.073C860.494 696.078 860.494 696.083 860.494 696.088C860.494 696.093 860.494 696.098 860.494 696.104C860.494 696.109 860.494 696.114 860.494 696.119C860.494 696.124 860.494 696.13 860.494 696.135C860.494 696.14 860.494 696.145 860.494 696.15C860.494 696.155 860.494 696.16 860.494 696.166C860.494 696.171 860.494 696.176 860.494 696.181C860.494 696.186 860.494 696.191 860.494 696.197C860.494 696.202 860.494 696.207 860.494 696.212C860.494 696.217 860.494 696.222 860.494 696.227C860.494 696.233 860.494 696.238 860.494 696.243C860.494 696.248 860.494 696.253 860.494 696.258C860.494 696.263 860.494 696.269 860.494 696.274C860.494 696.279 860.494 696.284 860.494 696.289C860.494 696.294 860.494 696.299 860.494 696.304C860.494 696.31 860.494 696.315 860.494 696.32C860.494 696.325 860.494 696.33 860.494 696.335C860.494 696.34 860.494 696.345 860.494 696.35C860.494 696.356 860.494 696.361 860.494 696.366C860.494 696.371 860.494 696.376 860.494 696.381C860.494 696.386 860.494 696.391 860.494 696.396C860.494 696.402 860.494 696.407 860.494 696.412C860.494 696.417 860.494 696.422 860.494 696.427C860.494 696.432 860.494 696.437 860.494 696.442C860.494 696.447 860.494 696.452 860.494 696.458C860.494 696.463 860.494 696.468 860.494 696.473C860.494 696.478 860.494 696.483 860.494 696.488C860.494 696.493 860.494 696.498 860.494 696.503C860.494 696.508 860.494 696.513 860.494 696.518C860.494 696.524 860.494 696.529 860.494 696.534C860.494 696.539 860.494 696.544 860.494 696.549C860.494 696.554 860.494 696.559 860.494 696.564C860.494 696.569 860.494 696.574 860.494 696.579C860.494 696.584 860.494 696.589 860.494 696.594C860.494 696.599 860.494 696.604 860.494 696.61C860.494 696.615 860.494 696.62 860.494 696.625C860.494 696.63 860.494 696.635 860.494 696.64C860.494 696.645 860.494 696.65 860.494 696.655C860.494 696.66 860.494 696.665 860.494 696.67C860.494 696.675 860.494 696.68 860.494 696.685C860.494 696.69 860.494 696.695 860.494 696.7C860.494 696.705 860.494 696.71 860.494 696.715C860.494 696.72 860.494 696.725 860.494 696.73C860.494 696.735 860.494 696.74 860.494 696.745C860.494 696.75 860.494 696.755 860.494 696.76C860.494 696.765 860.494 696.77 860.494 696.775C860.494 696.78 860.494 696.785 860.494 696.79C860.494 696.795 860.494 696.8 860.494 696.805C860.494 696.81 860.494 696.815 860.494 696.82C860.494 696.825 860.494 696.83 860.494 696.835C860.494 696.84 860.494 696.845 860.494 696.85C860.494 696.855 860.494 696.86 860.494 696.865C860.494 696.87 860.494 696.875 860.494 696.88C860.494 696.885 860.494 696.89 860.494 696.895C860.494 696.9 860.494 696.905 860.494 696.91C860.494 696.915 860.494 696.92 860.494 696.925C860.494 696.93 860.494 696.935 860.494 696.94C860.494 696.945 860.494 696.95 860.494 696.955C860.494 696.96 860.494 696.965 860.494 696.97C860.494 696.975 860.494 696.98 860.494 696.984C860.494 696.989 860.494 696.994 860.494 696.999C860.494 697.004 860.494 697.009 860.494 697.014C860.494 697.019 860.494 697.024 860.494 697.029C860.494 697.034 860.494 697.039 860.494 697.044C860.494 697.049 860.494 697.054 860.494 697.059C860.494 697.064 860.494 697.068 860.494 697.073C860.494 697.078 860.494 697.083 860.494 697.088C860.494 697.093 860.494 697.098 860.494 697.103C860.494 697.108 860.494 697.113 860.494 697.118C860.494 697.123 860.494 697.128 860.494 697.132C860.494 697.137 860.494 697.142 860.494 697.147C860.494 697.152 860.494 697.157 860.494 697.162C860.494 697.167 860.494 697.172 860.494 697.177C860.494 697.182 860.494 697.186 860.494 697.191C860.494 697.196 860.494 697.201 860.494 697.206C860.494 697.211 860.494 697.216 860.494 697.221C860.494 697.226 860.494 697.23 860.494 697.235C860.494 697.24 860.494 697.245 860.494 697.25H890.494C890.494 697.245 890.494 697.24 890.494 697.235C890.494 697.23 890.494 697.226 890.494 697.221C890.494 697.216 890.494 697.211 890.494 697.206C890.494 697.201 890.494 697.196 890.494 697.191C890.494 697.186 890.494 697.182 890.494 697.177C890.494 697.172 890.494 697.167 890.494 697.162C890.494 697.157 890.494 697.152 890.494 697.147C890.494 697.142 890.494 697.137 890.494 697.132C890.494 697.128 890.494 697.123 890.494 697.118C890.494 697.113 890.494 697.108 890.494 697.103C890.494 697.098 890.494 697.093 890.494 697.088C890.494 697.083 890.494 697.078 890.494 697.073C890.494 697.068 890.494 697.064 890.494 697.059C890.494 697.054 890.494 697.049 890.494 697.044C890.494 697.039 890.494 697.034 890.494 697.029C890.494 697.024 890.494 697.019 890.494 697.014C890.494 697.009 890.494 697.004 890.494 696.999C890.494 696.994 890.494 696.989 890.494 696.984C890.494 696.98 890.494 696.975 890.494 696.97C890.494 696.965 890.494 696.96 890.494 696.955C890.494 696.95 890.494 696.945 890.494 696.94C890.494 696.935 890.494 696.93 890.494 696.925C890.494 696.92 890.494 696.915 890.494 696.91C890.494 696.905 890.494 696.9 890.494 696.895C890.494 696.89 890.494 696.885 890.494 696.88C890.494 696.875 890.494 696.87 890.494 696.865C890.494 696.86 890.494 696.855 890.494 696.85C890.494 696.845 890.494 696.84 890.494 696.835C890.494 696.83 890.494 696.825 890.494 696.82C890.494 696.815 890.494 696.81 890.494 696.805C890.494 696.8 890.494 696.795 890.494 696.79C890.494 696.785 890.494 696.78 890.494 696.775C890.494 696.77 890.494 696.765 890.494 696.76C890.494 696.755 890.494 696.75 890.494 696.745C890.494 696.74 890.494 696.735 890.494 696.73C890.494 696.725 890.494 696.72 890.494 696.715C890.494 696.71 890.494 696.705 890.494 696.7C890.494 696.695 890.494 696.69 890.494 696.685C890.494 696.68 890.494 696.675 890.494 696.67C890.494 696.665 890.494 696.66 890.494 696.655C890.494 696.65 890.494 696.645 890.494 696.64C890.494 696.635 890.494 696.63 890.494 696.625C890.494 696.62 890.494 696.615 890.494 696.61C890.494 696.604 890.494 696.599 890.494 696.594C890.494 696.589 890.494 696.584 890.494 696.579C890.494 696.574 890.494 696.569 890.494 696.564C890.494 696.559 890.494 696.554 890.494 696.549C890.494 696.544 890.494 696.539 890.494 696.534C890.494 696.529 890.494 696.524 890.494 696.518C890.494 696.513 890.494 696.508 890.494 696.503C890.494 696.498 890.494 696.493 890.494 696.488C890.494 696.483 890.494 696.478 890.494 696.473C890.494 696.468 890.494 696.463 890.494 696.458C890.494 696.452 890.494 696.447 890.494 696.442C890.494 696.437 890.494 696.432 890.494 696.427C890.494 696.422 890.494 696.417 890.494 696.412C890.494 696.407 890.494 696.402 890.494 696.396C890.494 696.391 890.494 696.386 890.494 696.381C890.494 696.376 890.494 696.371 890.494 696.366C890.494 696.361 890.494 696.356 890.494 696.35C890.494 696.345 890.494 696.34 890.494 696.335C890.494 696.33 890.494 696.325 890.494 696.32C890.494 696.315 890.494 696.31 890.494 696.304C890.494 696.299 890.494 696.294 890.494 696.289C890.494 696.284 890.494 696.279 890.494 696.274C890.494 696.269 890.494 696.263 890.494 696.258C890.494 696.253 890.494 696.248 890.494 696.243C890.494 696.238 890.494 696.233 890.494 696.227C890.494 696.222 890.494 696.217 890.494 696.212C890.494 696.207 890.494 696.202 890.494 696.197C890.494 696.191 890.494 696.186 890.494 696.181C890.494 696.176 890.494 696.171 890.494 696.166C890.494 696.16 890.494 696.155 890.494 696.15C890.494 696.145 890.494 696.14 890.494 696.135C890.494 696.13 890.494 696.124 890.494 696.119C890.494 696.114 890.494 696.109 890.494 696.104C890.494 696.098 890.494 696.093 890.494 696.088C890.494 696.083 890.494 696.078 890.494 696.073C890.494 696.067 890.494 696.062 890.494 696.057C890.494 696.052 890.494 696.047 890.494 696.041C890.494 696.036 890.494 696.031 890.494 696.026C890.494 696.021 890.494 696.016 890.494 696.01C890.494 696.005 890.494 696 890.494 695.995C890.494 695.99 890.494 695.984 890.494 695.979C890.494 695.974 890.494 695.969 890.494 695.964C890.494 695.958 890.494 695.953 890.494 695.948C890.494 695.943 890.494 695.937 890.494 695.932C890.494 695.927 890.494 695.922 890.494 695.917C890.494 695.911 890.494 695.906 890.494 695.901C890.494 695.896 890.494 695.891 890.494 695.885C890.494 695.88 890.494 695.875 890.494 695.87C890.494 695.864 890.494 695.859 890.494 695.854C890.494 695.849 890.494 695.843 890.494 695.838C890.494 695.833 890.494 695.828 890.494 695.822C890.494 695.817 890.494 695.812 890.494 695.807C890.494 695.801 890.494 695.796 890.494 695.791C890.494 695.786 890.494 695.781 890.494 695.775C890.494 695.77 890.494 695.765 890.494 695.759C890.494 695.754 890.494 695.749 890.494 695.744C890.494 695.738 890.494 695.733 890.494 695.728C890.494 695.723 890.494 695.717 890.494 695.712C890.494 695.707 890.494 695.702 890.494 695.696C890.494 695.691 890.494 695.686 890.494 695.68C890.494 695.675 890.494 695.67 890.494 695.665C890.494 695.659 890.494 695.654 890.494 695.649C890.494 695.644 890.494 695.638 890.494 695.633C890.494 695.628 890.494 695.622 890.494 695.617C890.494 695.612 890.494 695.607 890.494 695.601C890.494 695.596 890.494 695.591 890.494 695.585C890.494 695.58 890.494 695.575 890.494 695.569C890.494 695.564 890.494 695.559 890.494 695.554C890.494 695.548 890.494 695.543 890.494 695.538C890.494 695.532 890.494 695.527 890.494 695.522C890.494 695.516 890.494 695.511 890.494 695.506C890.494 695.5 890.494 695.495 890.494 695.49C890.494 695.484 890.494 695.479 890.494 695.474C890.494 695.468 890.494 695.463 890.494 695.458C890.494 695.452 890.494 695.447 890.494 695.442C890.494 695.436 890.494 695.431 890.494 695.426C890.494 695.42 890.494 695.415 890.494 695.41C890.494 695.404 890.494 695.399 890.494 695.394C890.494 695.388 890.494 695.383 890.494 695.378C890.494 695.372 890.494 695.367 890.494 695.362C890.494 695.356 890.494 695.351 890.494 695.346C890.494 695.34 890.494 695.335 890.494 695.33C890.494 695.324 890.494 695.319 890.494 695.313C890.494 695.308 890.494 695.303 890.494 695.297C890.494 695.292 890.494 695.287 890.494 695.281C890.494 695.276 890.494 695.27 890.494 695.265C890.494 695.26 890.494 695.254 890.494 695.249C890.494 695.244 890.494 695.238 890.494 695.233C890.494 695.227 890.494 695.222 890.494 695.217C890.494 695.211 890.494 695.206 890.494 695.201C890.494 695.195 890.494 695.19 890.494 695.184C890.494 695.179 890.494 695.174 890.494 695.168C890.494 695.163 890.494 695.157 890.494 695.152C890.494 695.147 890.494 695.141 890.494 695.136C890.494 695.13 890.494 695.125 890.494 695.12C890.494 695.114 890.494 695.109 890.494 695.103C890.494 695.098 890.494 695.092 890.494 695.087C890.494 695.082 890.494 695.076 890.494 695.071C890.494 695.065 890.494 695.06 890.494 695.055C890.494 695.049 890.494 695.044 890.494 695.038C890.494 695.033 890.494 695.027 890.494 695.022C890.494 695.017 890.494 695.011 890.494 695.006C890.494 695 890.494 694.995 890.494 694.989C890.494 694.984 890.494 694.978 890.494 694.973C890.494 694.968 890.494 694.962 890.494 694.957C890.494 694.951 890.494 694.946 890.494 694.94C890.494 694.935 890.494 694.929 890.494 694.924C890.494 694.919 890.494 694.913 890.494 694.908C890.494 694.902 890.494 694.897 890.494 694.891C890.494 694.886 890.494 694.88 890.494 694.875C890.494 694.869 890.494 694.864 890.494 694.858C890.494 694.853 890.494 694.847 890.494 694.842C890.494 694.837 890.494 694.831 890.494 694.826C890.494 694.82 890.494 694.815 890.494 694.809C890.494 694.804 890.494 694.798 890.494 694.793C890.494 694.787 890.494 694.782 890.494 694.776C890.494 694.771 890.494 694.765 890.494 694.76C890.494 694.754 890.494 694.749 890.494 694.743C890.494 694.738 890.494 694.732 890.494 694.727C890.494 694.721 890.494 694.716 890.494 694.71C890.494 694.705 890.494 694.699 890.494 694.694C890.494 694.688 890.494 694.683 890.494 694.677C890.494 694.672 890.494 694.666 890.494 694.661C890.494 694.655 890.494 694.65 890.494 694.644C890.494 694.639 890.494 694.633 890.494 694.628C890.494 694.622 890.494 694.617 890.494 694.611C890.494 694.605 890.494 694.6 890.494 694.594C890.494 694.589 890.494 694.583 890.494 694.578C890.494 694.572 890.494 694.567 890.494 694.561C890.494 694.556 890.494 694.55 890.494 694.545C890.494 694.539 890.494 694.533 890.494 694.528C890.494 694.522 890.494 694.517 890.494 694.511C890.494 694.506 890.494 694.5 890.494 694.495C890.494 694.489 890.494 694.484 890.494 694.478C890.494 694.472 890.494 694.467 890.494 694.461C890.494 694.456 890.494 694.45 890.494 694.445C890.494 694.439 890.494 694.433 890.494 694.428C890.494 694.422 890.494 694.417 890.494 694.411C890.494 694.406 890.494 694.4 890.494 694.394C890.494 694.389 890.494 694.383 890.494 694.378C890.494 694.372 890.494 694.367 890.494 694.361C890.494 694.355 890.494 694.35 890.494 694.344C890.494 694.339 890.494 694.333 890.494 694.327C890.494 694.322 890.494 694.316 890.494 694.311C890.494 694.305 890.494 694.299 890.494 694.294C890.494 694.288 890.494 694.283 890.494 694.277C890.494 694.271 890.494 694.266 890.494 694.26C890.494 694.255 890.494 694.249 890.494 694.243C890.494 694.238 890.494 694.232 890.494 694.227C890.494 694.221 890.494 694.215 890.494 694.21C890.494 694.204 890.494 694.198 890.494 694.193C890.494 694.187 890.494 694.182 890.494 694.176C890.494 694.17 890.494 694.165 890.494 694.159C890.494 694.153 890.494 694.148 890.494 694.142C890.494 694.137 890.494 694.131 890.494 694.125C890.494 694.12 890.494 694.114 890.494 694.108C890.494 694.103 890.494 694.097 890.494 694.091C890.494 694.086 890.494 694.08 890.494 694.074C890.494 694.069 890.494 694.063 890.494 694.058C890.494 694.052 890.494 694.046 890.494 694.041C890.494 694.035 890.494 694.029 890.494 694.024C890.494 694.018 890.494 694.012 890.494 694.007C890.494 694.001 890.494 693.995 890.494 693.99C890.494 693.984 890.494 693.978 890.494 693.973C890.494 693.967 890.494 693.961 890.494 693.956C890.494 693.95 890.494 693.944 890.494 693.939C890.494 693.933 890.494 693.927 890.494 693.921C890.494 693.916 890.494 693.91 890.494 693.904C890.494 693.899 890.494 693.893 890.494 693.887C890.494 693.882 890.494 693.876 890.494 693.87C890.494 693.865 890.494 693.859 890.494 693.853C890.494 693.847 890.494 693.842 890.494 693.836C890.494 693.83 890.494 693.825 890.494 693.819C890.494 693.813 890.494 693.808 890.494 693.802C890.494 693.796 890.494 693.79 890.494 693.785C890.494 693.779 890.494 693.773 890.494 693.768C890.494 693.762 890.494 693.756 890.494 693.75C890.494 693.745 890.494 693.739 890.494 693.733C890.494 693.727 890.494 693.722 890.494 693.716C890.494 693.71 890.494 693.705 890.494 693.699C890.494 693.693 890.494 693.687 890.494 693.682C890.494 693.676 890.494 693.67 890.494 693.664C890.494 693.659 890.494 693.653 890.494 693.647C890.494 693.641 890.494 693.636 890.494 693.63C890.494 693.624 890.494 693.618 890.494 693.613C890.494 693.607 890.494 693.601 890.494 693.595C890.494 693.59 890.494 693.584 890.494 693.578C890.494 693.572 890.494 693.567 890.494 693.561C890.494 693.555 890.494 693.549 890.494 693.544C890.494 693.538 890.494 693.532 890.494 693.526C890.494 693.52 890.494 693.515 890.494 693.509C890.494 693.503 890.494 693.497 890.494 693.492C890.494 693.486 890.494 693.48 890.494 693.474C890.494 693.468 890.494 693.463 890.494 693.457C890.494 693.451 890.494 693.445 890.494 693.44C890.494 693.434 890.494 693.428 890.494 693.422C890.494 693.416 890.494 693.411 890.494 693.405C890.494 693.399 890.494 693.393 890.494 693.387C890.494 693.382 890.494 693.376 890.494 693.37C890.494 693.364 890.494 693.358 890.494 693.353C890.494 693.347 890.494 693.341 890.494 693.335C890.494 693.329 890.494 693.323 890.494 693.318C890.494 693.312 890.494 693.306 890.494 693.3C890.494 693.294 890.494 693.289 890.494 693.283C890.494 693.277 890.494 693.271 890.494 693.265C890.494 693.259 890.494 693.254 890.494 693.248C890.494 693.242 890.494 693.236 890.494 693.23C890.494 693.224 890.494 693.219 890.494 693.213C890.494 693.207 890.494 693.201 890.494 693.195C890.494 693.189 890.494 693.184 890.494 693.178C890.494 693.172 890.494 693.166 890.494 693.16C890.494 693.154 890.494 693.148 890.494 693.143C890.494 693.137 890.494 693.131 890.494 693.125C890.494 693.119 890.494 693.113 890.494 693.107C890.494 693.102 890.494 693.096 890.494 693.09C890.494 693.084 890.494 693.078 890.494 693.072C890.494 693.066 890.494 693.06 890.494 693.055C890.494 693.049 890.494 693.043 890.494 693.037C890.494 693.031 890.494 693.025 890.494 693.019C890.494 693.013 890.494 693.008 890.494 693.002C890.494 692.996 890.494 692.99 890.494 692.984C890.494 692.978 890.494 692.972 890.494 692.966C890.494 692.96 890.494 692.955 890.494 692.949C890.494 692.943 890.494 692.937 890.494 692.931C890.494 692.925 890.494 692.919 890.494 692.913C890.494 692.907 890.494 692.901 890.494 692.896C890.494 692.89 890.494 692.884 890.494 692.878C890.494 692.872 890.494 692.866 890.494 692.86C890.494 692.854 890.494 692.848 890.494 692.842C890.494 692.836 890.494 692.83 890.494 692.825C890.494 692.819 890.494 692.813 890.494 692.807C890.494 692.801 890.494 692.795 890.494 692.789C890.494 692.783 890.494 692.777 890.494 692.771C890.494 692.765 890.494 692.759 890.494 692.753C890.494 692.747 890.494 692.741 890.494 692.736C890.494 692.73 890.494 692.724 890.494 692.718C890.494 692.712 890.494 692.706 890.494 692.7C890.494 692.694 890.494 692.688 890.494 692.682C890.494 692.676 890.494 692.67 890.494 692.664C890.494 692.658 890.494 692.652 890.494 692.646C890.494 692.64 890.494 692.634 890.494 692.628C890.494 692.622 890.494 692.616 890.494 692.61C890.494 692.604 890.494 692.598 890.494 692.592C890.494 692.587 890.494 692.581 890.494 692.575C890.494 692.569 890.494 692.563 890.494 692.557C890.494 692.551 890.494 692.545 890.494 692.539C890.494 692.533 890.494 692.527 890.494 692.521C890.494 692.515 890.494 692.509 890.494 692.503C890.494 692.497 890.494 692.491 890.494 692.485C890.494 692.479 890.494 692.473 890.494 692.467C890.494 692.461 890.494 692.455 890.494 692.449C890.494 692.443 890.494 692.437 890.494 692.431C890.494 692.425 890.494 692.419 890.494 692.413C890.494 692.407 890.494 692.401 890.494 692.395C890.494 692.389 890.494 692.383 890.494 692.377C890.494 692.371 890.494 692.365 890.494 692.359C890.494 692.353 890.494 692.347 890.494 692.34C890.494 692.334 890.494 692.328 890.494 692.322C890.494 692.316 890.494 692.31 890.494 692.304C890.494 692.298 890.494 692.292 890.494 692.286C890.494 692.28 890.494 692.274 890.494 692.268C890.494 692.262 890.494 692.256 890.494 692.25C890.494 692.244 890.494 692.238 890.494 692.232C890.494 692.226 890.494 692.22 890.494 692.214C890.494 692.208 890.494 692.202 890.494 692.195C890.494 692.189 890.494 692.183 890.494 692.177C890.494 692.171 890.494 692.165 890.494 692.159C890.494 692.153 890.494 692.147 890.494 692.141C890.494 692.135 890.494 692.129 890.494 692.123C890.494 692.117 890.494 692.111 890.494 692.104C890.494 692.098 890.494 692.092 890.494 692.086C890.494 692.08 890.494 692.074 890.494 692.068C890.494 692.062 890.494 692.056 890.494 692.05C890.494 692.044 890.494 692.038 890.494 692.031C890.494 692.025 890.494 692.019 890.494 692.013C890.494 692.007 890.494 692.001 890.494 691.995C890.494 691.989 890.494 691.983 890.494 691.977C890.494 691.97 890.494 691.964 890.494 691.958C890.494 691.952 890.494 691.946 890.494 691.94C890.494 691.934 890.494 691.928 890.494 691.922C890.494 691.915 890.494 691.909 890.494 691.903C890.494 691.897 890.494 691.891 890.494 691.885C890.494 691.879 890.494 691.873 890.494 691.866C890.494 691.86 890.494 691.854 890.494 691.848C890.494 691.842 890.494 691.836 890.494 691.83C890.494 691.824 890.494 691.817 890.494 691.811C890.494 691.805 890.494 691.799 890.494 691.793C890.494 691.787 890.494 691.781 890.494 691.774C890.494 691.768 890.494 691.762 890.494 691.756C890.494 691.75 890.494 691.744 890.494 691.738C890.494 691.731 890.494 691.725 890.494 691.719C890.494 691.713 890.494 691.707 890.494 691.701C890.494 691.694 890.494 691.688 890.494 691.682C890.494 691.676 890.494 691.67 890.494 691.664C890.494 691.657 890.494 691.651 890.494 691.645C890.494 691.639 890.494 691.633 890.494 691.627C890.494 691.62 890.494 691.614 890.494 691.608C890.494 691.602 890.494 691.596 890.494 691.59C890.494 691.583 890.494 691.577 890.494 691.571C890.494 691.565 890.494 691.559 890.494 691.552C890.494 691.546 890.494 691.54 890.494 691.534C890.494 691.528 890.494 691.521 890.494 691.515C890.494 691.509 890.494 691.503 890.494 691.497C890.494 691.49 890.494 691.484 890.494 691.478C890.494 691.472 890.494 691.466 890.494 691.459C890.494 691.453 890.494 691.447 890.494 691.441C890.494 691.435 890.494 691.428 890.494 691.422C890.494 691.416 890.494 691.41 890.494 691.403C890.494 691.397 890.494 691.391 890.494 691.385C890.494 691.379 890.494 691.372 890.494 691.366C890.494 691.36 890.494 691.354 890.494 691.347C890.494 691.341 890.494 691.335 890.494 691.329C890.494 691.322 890.494 691.316 890.494 691.31C890.494 691.304 890.494 691.297 890.494 691.291C890.494 691.285 890.494 691.279 890.494 691.272C890.494 691.266 890.494 691.26 890.494 691.254C890.494 691.247 890.494 691.241 890.494 691.235C890.494 691.229 890.494 691.222 890.494 691.216C890.494 691.21 890.494 691.204 890.494 691.197C890.494 691.191 890.494 691.185 890.494 691.179C890.494 691.172 890.494 691.166 890.494 691.16C890.494 691.154 890.494 691.147 890.494 691.141C890.494 691.135 890.494 691.128 890.494 691.122C890.494 691.116 890.494 691.11 890.494 691.103C890.494 691.097 890.494 691.091 890.494 691.084C890.494 691.078 890.494 691.072 890.494 691.066C890.494 691.059 890.494 691.053 890.494 691.047C890.494 691.04 890.494 691.034 890.494 691.028C890.494 691.022 890.494 691.015 890.494 691.009C890.494 691.003 890.494 690.996 890.494 690.99C890.494 690.984 890.494 690.977 890.494 690.971C890.494 690.965 890.494 690.958 890.494 690.952C890.494 690.946 890.494 690.94 890.494 690.933C890.494 690.927 890.494 690.921 890.494 690.914C890.494 690.908 890.494 690.902 890.494 690.895C890.494 690.889 890.494 690.883 890.494 690.876C890.494 690.87 890.494 690.864 890.494 690.857C890.494 690.851 890.494 690.845 890.494 690.838C890.494 690.832 890.494 690.826 890.494 690.819C890.494 690.813 890.494 690.807 890.494 690.8C890.494 690.794 890.494 690.788 890.494 690.781C890.494 690.775 890.494 690.769 890.494 690.762C890.494 690.756 890.494 690.749 890.494 690.743C890.494 690.737 890.494 690.73 890.494 690.724C890.494 690.718 890.494 690.711 890.494 690.705C890.494 690.699 890.494 690.692 890.494 690.686C890.494 690.68 890.494 690.673 890.494 690.667C890.494 690.66 890.494 690.654 890.494 690.648C890.494 690.641 890.494 690.635 890.494 690.629C890.494 690.622 890.494 690.616 890.494 690.609C890.494 690.603 890.494 690.597 890.494 690.59C890.494 690.584 890.494 690.577 890.494 690.571C890.494 690.565 890.494 690.558 890.494 690.552C890.494 690.546 890.494 690.539 890.494 690.533C890.494 690.526 890.494 690.52 890.494 690.514C890.494 690.507 890.494 690.501 890.494 690.494C890.494 690.488 890.494 690.481 890.494 690.475C890.494 690.469 890.494 690.462 890.494 690.456C890.494 690.449 890.494 690.443 890.494 690.437C890.494 690.43 890.494 690.424 890.494 690.417C890.494 690.411 890.494 690.405 890.494 690.398C890.494 690.392 890.494 690.385 890.494 690.379C890.494 690.372 890.494 690.366 890.494 690.36C890.494 690.353 890.494 690.347 890.494 690.34C890.494 690.334 890.494 690.327 890.494 690.321C890.494 690.314 890.494 690.308 890.494 690.302C890.494 690.295 890.494 690.289 890.494 690.282C890.494 690.276 890.494 690.269 890.494 690.263C890.494 690.256 890.494 690.25 890.494 690.244C890.494 690.237 890.494 690.231 890.494 690.224C890.494 690.218 890.494 690.211 890.494 690.205C890.494 690.198 890.494 690.192 890.494 690.185C890.494 690.179 890.494 690.172 890.494 690.166C890.494 690.16 890.494 690.153 890.494 690.147C890.494 690.14 890.494 690.134 890.494 690.127C890.494 690.121 890.494 690.114 890.494 690.108C890.494 690.101 890.494 690.095 890.494 690.088C890.494 690.082 890.494 690.075 890.494 690.069C890.494 690.062 890.494 690.056 890.494 690.049C890.494 690.043 890.494 690.036 890.494 690.03C890.494 690.023 890.494 690.017 890.494 690.01C890.494 690.004 890.494 689.997 890.494 689.991C890.494 689.984 890.494 689.978 890.494 689.971C890.494 689.965 890.494 689.958 890.494 689.952C890.494 689.945 890.494 689.939 890.494 689.932C890.494 689.926 890.494 689.919 890.494 689.913C890.494 689.906 890.494 689.9 890.494 689.893C890.494 689.887 890.494 689.88 890.494 689.874C890.494 689.867 890.494 689.861 890.494 689.854C890.494 689.847 890.494 689.841 890.494 689.834C890.494 689.828 890.494 689.821 890.494 689.815C890.494 689.808 890.494 689.802 890.494 689.795C890.494 689.789 890.494 689.782 890.494 689.776C890.494 689.769 890.494 689.762 890.494 689.756C890.494 689.749 890.494 689.743 890.494 689.736C890.494 689.73 890.494 689.723 890.494 689.717C890.494 689.71 890.494 689.703 890.494 689.697C890.494 689.69 890.494 689.684 890.494 689.677C890.494 689.671 890.494 689.664 890.494 689.657C890.494 689.651 890.494 689.644 890.494 689.638C890.494 689.631 890.494 689.625 890.494 689.618C890.494 689.611 890.494 689.605 890.494 689.598C890.494 689.592 890.494 689.585 890.494 689.579C890.494 689.572 890.494 689.565 890.494 689.559C890.494 689.552 890.494 689.546 890.494 689.539C890.494 689.532 890.494 689.526 890.494 689.519C890.494 689.513 890.494 689.506 890.494 689.499C890.494 689.493 890.494 689.486 890.494 689.48C890.494 689.473 890.494 689.466 890.494 689.46C890.494 689.453 890.494 689.447 890.494 689.44C890.494 689.433 890.494 689.427 890.494 689.42C890.494 689.414 890.494 689.407 890.494 689.4C890.494 689.394 890.494 689.387 890.494 689.38C890.494 689.374 890.494 689.367 890.494 689.361C890.494 689.354 890.494 689.347 890.494 689.341C890.494 689.334 890.494 689.327 890.494 689.321C890.494 689.314 890.494 689.308 890.494 689.301C890.494 689.294 890.494 689.288 890.494 689.281C890.494 689.274 890.494 689.268 890.494 689.261C890.494 689.254 890.494 689.248 890.494 689.241C890.494 689.234 890.494 689.228 890.494 689.221C890.494 689.215 890.494 689.208 890.494 689.201C890.494 689.195 890.494 689.188 890.494 689.181C890.494 689.175 890.494 689.168 890.494 689.161C890.494 689.155 890.494 689.148 890.494 689.141C890.494 689.135 890.494 689.128 890.494 689.121C890.494 689.115 890.494 689.108 890.494 689.101C890.494 689.095 890.494 689.088 890.494 689.081C890.494 689.075 890.494 689.068 890.494 689.061C890.494 689.054 890.494 689.048 890.494 689.041C890.494 689.034 890.494 689.028 890.494 689.021C890.494 689.014 890.494 689.008 890.494 689.001C890.494 688.994 890.494 688.988 890.494 688.981C890.494 688.974 890.494 688.967 890.494 688.961C890.494 688.954 890.494 688.947 890.494 688.941C890.494 688.934 890.494 688.927 890.494 688.921C890.494 688.914 890.494 688.907 890.494 688.9C890.494 688.894 890.494 688.887 890.494 688.88C890.494 688.874 890.494 688.867 890.494 688.86C890.494 688.853 890.494 688.847 890.494 688.84C890.494 688.833 890.494 688.826 890.494 688.82C890.494 688.813 890.494 688.806 890.494 688.8C890.494 688.793 890.494 688.786 890.494 688.779C890.494 688.773 890.494 688.766 890.494 688.759C890.494 688.752 890.494 688.746 890.494 688.739C890.494 688.732 890.494 688.725 890.494 688.719C890.494 688.712 890.494 688.705 890.494 688.698C890.494 688.692 890.494 688.685 890.494 688.678C890.494 688.671 890.494 688.665 890.494 688.658C890.494 688.651 890.494 688.644 890.494 688.638C890.494 688.631 890.494 688.624 890.494 688.617C890.494 688.611 890.494 688.604 890.494 688.597C890.494 688.59 890.494 688.583 890.494 688.577C890.494 688.57 890.494 688.563 890.494 688.556C890.494 688.55 890.494 688.543 890.494 688.536C890.494 688.529 890.494 688.522 890.494 688.516C890.494 688.509 890.494 688.502 890.494 688.495C890.494 688.488 890.494 688.482 890.494 688.475C890.494 688.468 890.494 688.461 890.494 688.454C890.494 688.448 890.494 688.441 890.494 688.434C890.494 688.427 890.494 688.42 890.494 688.414C890.494 688.407 890.494 688.4 890.494 688.393C890.494 688.386 890.494 688.38 890.494 688.373C890.494 688.366 890.494 688.359 890.494 688.352C890.494 688.346 890.494 688.339 890.494 688.332C890.494 688.325 890.494 688.318 890.494 688.311C890.494 688.305 890.494 688.298 890.494 688.291C890.494 688.284 890.494 688.277 890.494 688.27C890.494 688.264 890.494 688.257 890.494 688.25H860.494ZM860.698 694.784C860.09 698.431 859.744 702.019 859.744 705.5H889.744C889.744 703.981 889.898 702.069 890.29 699.716L860.698 694.784ZM860.035 702.558C859.311 706.179 858.994 709.93 858.994 713.75H888.994C888.994 711.57 889.177 709.821 889.453 708.442L860.035 702.558ZM873.994 698.75H597.244V728.75H873.994V698.75ZM582.376 715.732C584.57 732.187 589.033 747.021 596.076 759.933L622.413 745.567C617.455 736.479 613.919 725.313 612.113 711.768L582.376 715.732ZM596.49 760.645C603.793 772.442 612.587 782.686 622.891 791.273L642.097 768.227C634.401 761.814 627.696 754.058 621.998 744.855L596.49 760.645ZM623.596 791.826C634.385 799.776 646.1 805.786 658.696 809.794L667.792 781.206C658.388 778.214 649.603 773.724 641.392 767.674L623.596 791.826ZM659.297 809.971C671.595 813.325 684.173 815 696.994 815V785C686.816 785 676.894 783.675 667.191 781.029L659.297 809.971ZM696.994 815C721.694 815 743.392 809.498 761.01 797.348L743.978 772.652C732.596 780.502 717.295 785 696.994 785V815ZM761.096 797.288C777.913 785.517 791.249 770.804 800.896 753.212L774.592 738.788C767.239 752.196 757.076 763.483 743.892 772.712L761.096 797.288ZM781.085 759.441L862.835 799.941L876.153 773.059L794.403 732.559L781.085 759.441ZM795.2 642.85C794.507 633.84 791.477 624.674 786.911 615.542L760.078 628.958C763.512 635.826 764.981 641.16 765.288 645.15L795.2 642.85ZM787.237 616.238C782.787 606.066 775.966 596.938 767.229 588.784L746.759 610.716C753.023 616.562 757.202 622.433 759.752 628.262L787.237 616.238ZM767.601 589.143C758.94 580.482 748.155 573.723 735.674 568.617L724.315 596.383C733.833 600.277 741.048 605.018 746.388 610.357L767.601 589.143ZM735.903 568.713C723.05 563.204 708.17 560.75 691.744 560.75V590.75C705.318 590.75 715.938 592.796 724.085 596.287L735.903 568.713ZM691.744 560.75C667.672 560.75 645.976 567.701 627.244 581.75L645.244 605.75C658.512 595.799 673.816 590.75 691.744 590.75V560.75ZM627.244 581.75C608.377 595.9 595.442 615.494 588.136 639.659L616.852 648.341C622.547 629.505 632.111 615.6 645.244 605.75L627.244 581.75ZM602.494 659H780.244V629H602.494V659ZM938.242 507.5V492.5H923.242V507.5H938.242ZM1030.49 507.5H1045.49V492.5H1030.49V507.5ZM1030.49 558.5H1015.49V573.5H1030.49V558.5ZM1036.49 558.5V573.5H1045.76L1049.91 565.208L1036.49 558.5ZM1054.49 533.75L1065.1 544.357L1065.1 544.357L1054.49 533.75ZM1079.24 514.25L1071.73 501.269L1071.57 501.358L1071.42 501.451L1079.24 514.25ZM1109.24 501.5L1105.3 487.029L1105.21 487.052L1105.12 487.077L1109.24 501.5ZM1174.49 500.75L1170.48 515.203L1170.58 515.23L1170.67 515.256L1174.49 500.75ZM1198.49 510.5L1212.88 514.732L1216.12 503.734L1206.35 497.725L1198.49 510.5ZM1172.24 599.75L1165.53 613.166L1181.57 621.186L1186.63 603.982L1172.24 599.75ZM1151.99 593L1147.87 607.423L1148.46 607.59L1149.05 607.709L1151.99 593ZM1088.99 598.25L1095.2 611.905L1095.45 611.791L1095.7 611.666L1088.99 598.25ZM1060.49 620L1049.02 610.338L1048.87 610.519L1048.72 610.705L1060.49 620ZM1042.49 653.75L1028.32 648.843L1028.26 649.01L1028.21 649.178L1042.49 653.75ZM1036.49 875V890H1051.49V875H1036.49ZM938.242 875H923.242V890H938.242V875ZM938.242 522.5H1030.49V492.5H938.242V522.5ZM1015.49 507.5V558.5H1045.49V507.5H1015.49ZM1030.49 573.5H1036.49V543.5H1030.49V573.5ZM1049.91 565.208C1053.65 557.727 1058.68 550.779 1065.1 544.357L1043.89 523.143C1035.31 531.721 1028.34 541.273 1023.08 551.792L1049.91 565.208ZM1065.1 544.357C1071.77 537.69 1079.08 531.927 1087.06 527.049L1071.42 501.451C1061.4 507.572 1052.22 514.81 1043.89 523.143L1065.1 544.357ZM1086.76 527.231C1095.2 522.346 1104.06 518.582 1113.36 515.923L1105.12 487.077C1093.43 490.418 1082.29 495.154 1071.73 501.269L1086.76 527.231ZM1113.19 515.971C1123.01 513.292 1132.43 512 1141.49 512V482C1129.55 482 1117.47 483.708 1105.3 487.029L1113.19 515.971ZM1141.49 512C1153.62 512 1163.18 513.177 1170.48 515.203L1178.51 486.297C1167.8 483.323 1155.36 482 1141.49 482V512ZM1170.67 515.256C1179.14 517.483 1185.69 520.232 1190.63 523.275L1206.35 497.725C1198.3 492.768 1188.85 489.017 1178.31 486.244L1170.67 515.256ZM1184.1 506.267L1157.85 595.517L1186.63 603.982L1212.88 514.732L1184.1 506.267ZM1178.95 586.334C1171.6 582.661 1163.56 580.017 1154.93 578.291L1149.05 607.709C1155.42 608.983 1160.88 610.839 1165.53 613.166L1178.95 586.334ZM1156.11 578.577C1147.33 576.066 1137.08 575 1125.74 575V605C1135.41 605 1142.66 605.934 1147.87 607.423L1156.11 578.577ZM1125.74 575C1110.14 575 1095.56 578.193 1082.28 584.834L1095.7 611.666C1104.42 607.306 1114.34 605 1125.74 605V575ZM1082.79 584.594C1069.7 590.544 1058.41 599.181 1049.02 610.338L1071.97 629.662C1078.57 621.819 1086.29 615.956 1095.2 611.905L1082.79 584.594ZM1048.72 610.705C1040.05 621.69 1033.29 634.47 1028.32 648.843L1056.67 658.657C1060.69 647.03 1065.94 637.31 1072.27 629.295L1048.72 610.705ZM1028.21 649.178C1023.67 663.35 1021.49 678.666 1021.49 695H1051.49C1051.49 681.334 1053.31 669.15 1056.78 658.322L1028.21 649.178ZM1021.49 695V875H1051.49V695H1021.49ZM1036.49 860H938.242V890H1036.49V860ZM953.242 875V507.5H923.242V875H953.242ZM1273.66 449.75L1267.32 463.343L1267.85 463.59L1268.4 463.795L1273.66 449.75ZM1253.41 436.25L1242.35 446.386L1242.8 446.867L1243.28 447.307L1253.41 436.25ZM1239.91 416L1225.98 421.571L1226.14 421.962L1226.32 422.343L1239.91 416ZM1239.91 366.5L1226.32 360.157L1226.14 360.538L1225.98 360.929L1239.91 366.5ZM1253.41 347L1242.81 336.393L1242.81 336.393L1253.41 347ZM1273.66 333.5L1279.23 347.427L1279.46 347.338L1279.67 347.242L1273.66 333.5ZM1343.41 347L1332.81 357.607L1332.91 357.715L1333.02 357.821L1343.41 347ZM1343.41 436.25L1353.8 447.071L1353.91 446.965L1354.02 446.857L1343.41 436.25ZM1249.66 875H1234.66V890H1249.66V875ZM1249.66 507.5V492.5H1234.66V507.5H1249.66ZM1347.91 507.5H1362.91V492.5H1347.91V507.5ZM1347.91 875V890H1362.91V875H1347.91ZM1298.41 439.25C1291.72 439.25 1285.25 438.077 1278.93 435.705L1268.4 463.795C1278.07 467.423 1288.1 469.25 1298.41 469.25V439.25ZM1280.01 436.157C1273.87 433.293 1268.4 429.642 1263.55 425.193L1243.28 447.307C1250.42 453.858 1258.46 459.207 1267.32 463.343L1280.01 436.157ZM1264.47 426.114C1260.02 421.261 1256.37 415.794 1253.5 409.657L1226.32 422.343C1230.46 431.206 1235.8 439.239 1242.35 446.386L1264.47 426.114ZM1253.84 410.429C1251.62 404.892 1250.41 398.559 1250.41 391.25H1220.41C1220.41 401.941 1222.2 412.108 1225.98 421.571L1253.84 410.429ZM1250.41 391.25C1250.41 383.941 1251.62 377.608 1253.84 372.071L1225.98 360.929C1222.2 370.392 1220.41 380.559 1220.41 391.25H1250.41ZM1253.5 372.843C1256.31 366.825 1259.83 361.793 1264.02 357.607L1242.81 336.393C1235.99 343.207 1230.51 351.175 1226.32 360.157L1253.5 372.843ZM1264.02 357.607C1268.66 352.969 1273.71 349.635 1279.23 347.427L1268.09 319.573C1258.61 323.365 1250.17 329.031 1242.81 336.393L1264.02 357.607ZM1279.67 347.242C1285.83 344.549 1292.04 343.25 1298.41 343.25V313.25C1287.79 313.25 1277.49 315.451 1267.65 319.758L1279.67 347.242ZM1298.41 343.25C1311.89 343.25 1323.09 347.888 1332.81 357.607L1354.02 336.393C1338.74 321.112 1319.94 313.25 1298.41 313.25V343.25ZM1333.02 357.821C1342.54 366.961 1347.16 377.788 1347.16 391.25H1377.16C1377.16 369.712 1369.28 351.039 1353.8 336.179L1333.02 357.821ZM1347.16 391.25C1347.16 404.727 1342.52 415.924 1332.81 425.643L1354.02 446.857C1369.3 431.576 1377.16 412.773 1377.16 391.25H1347.16ZM1333.02 425.429C1323.35 434.718 1312.08 439.25 1298.41 439.25V469.25C1319.74 469.25 1338.48 461.782 1353.8 447.071L1333.02 425.429ZM1264.66 875V507.5H1234.66V875H1264.66ZM1249.66 522.5H1347.91V492.5H1249.66V522.5ZM1332.91 507.5V875H1362.91V507.5H1332.91ZM1347.91 860H1249.66V890H1347.91V860ZM1474.59 591.5H1489.59V576.5H1474.59V591.5ZM1410.09 591.5H1395.09V606.5H1410.09V591.5ZM1410.09 507.5V492.5H1395.09V507.5H1410.09ZM1474.59 507.5V522.5H1489.59V507.5H1474.59ZM1474.59 395V380H1459.59V395H1474.59ZM1572.84 395H1587.84V380H1572.84V395ZM1572.84 507.5H1557.84V522.5H1572.84V507.5ZM1662.84 507.5H1677.84V492.5H1662.84V507.5ZM1662.84 591.5V606.5H1677.84V591.5H1662.84ZM1572.84 591.5V576.5H1557.84V591.5H1572.84ZM1575.09 758L1560.38 760.942L1560.5 761.537L1560.67 762.121L1575.09 758ZM1585.59 776L1596.88 766.122L1596.55 765.747L1596.2 765.393L1585.59 776ZM1635.84 785.75L1640.15 800.117L1640.79 799.925L1641.41 799.677L1635.84 785.75ZM1650.09 778.25L1664.37 773.656L1658.29 754.757L1641.77 765.769L1650.09 778.25ZM1677.84 864.5L1684.31 878.032L1696.13 872.379L1692.12 859.906L1677.84 864.5ZM1640.34 876.5L1637.61 861.751L1637.29 861.81L1636.97 861.884L1640.34 876.5ZM1546.59 872.75L1540.86 886.61L1541.14 886.728L1541.43 886.833L1546.59 872.75ZM1509.84 848.75L1520.45 838.143L1520.33 838.028L1520.22 837.915L1509.84 848.75ZM1474.59 576.5H1410.09V606.5H1474.59V576.5ZM1425.09 591.5V507.5H1395.09V591.5H1425.09ZM1410.09 522.5H1474.59V492.5H1410.09V522.5ZM1489.59 507.5V395H1459.59V507.5H1489.59ZM1474.59 410H1572.84V380H1474.59V410ZM1557.84 395V507.5H1587.84V395H1557.84ZM1572.84 522.5H1662.84V492.5H1572.84V522.5ZM1647.84 507.5V591.5H1677.84V507.5H1647.84ZM1662.84 576.5H1572.84V606.5H1662.84V576.5ZM1557.84 591.5V734H1587.84V591.5H1557.84ZM1557.84 734C1557.84 743.38 1558.67 752.373 1560.38 760.942L1589.8 755.058C1588.51 748.627 1587.84 741.62 1587.84 734H1557.84ZM1560.67 762.121C1563.35 771.496 1568.13 779.749 1574.99 786.607L1596.2 765.393C1593.06 762.251 1590.84 758.504 1589.51 753.879L1560.67 762.121ZM1574.3 785.878C1584.78 797.847 1599.31 803 1615.59 803V773C1605.87 773 1600.41 770.153 1596.88 766.122L1574.3 785.878ZM1615.59 803C1624.76 803 1633.16 802.216 1640.15 800.117L1631.53 771.383C1628.53 772.284 1623.43 773 1615.59 773V803ZM1641.41 799.677C1647.38 797.29 1653.05 794.304 1658.41 790.731L1641.77 765.769C1638.13 768.196 1634.3 770.21 1630.27 771.823L1641.41 799.677ZM1635.81 782.844L1663.56 869.094L1692.12 859.906L1664.37 773.656L1635.81 782.844ZM1671.37 850.968C1661.15 855.858 1649.91 859.472 1637.61 861.751L1643.07 891.249C1657.77 888.528 1671.54 884.142 1684.31 878.032L1671.37 850.968ZM1636.97 861.884C1625.27 864.584 1611.92 866 1596.84 866V896C1613.76 896 1629.42 894.416 1643.71 891.116L1636.97 861.884ZM1596.84 866C1579.83 866 1564.86 863.473 1551.76 858.667L1541.43 886.833C1558.32 893.027 1576.85 896 1596.84 896V866ZM1552.33 858.89C1539.45 853.561 1528.91 846.604 1520.45 838.143L1499.24 859.357C1510.77 870.896 1524.73 879.939 1540.86 886.61L1552.33 858.89ZM1520.22 837.915C1500.43 818.974 1489.59 791.35 1489.59 752.75H1459.59C1459.59 797.15 1472.25 833.526 1499.47 859.585L1520.22 837.915ZM1489.59 752.75V591.5H1459.59V752.75H1489.59ZM1854.28 857L1867.94 863.203L1870.72 857.083L1868 850.935L1854.28 857ZM1699.78 507.5V492.5H1676.75L1686.06 513.565L1699.78 507.5ZM1811.53 507.5L1825.37 501.721L1821.52 492.5H1811.53V507.5ZM1904.53 730.25L1890.69 736.029L1894.54 745.25H1904.53V730.25ZM1909.78 730.25V745.25H1919.93L1923.7 735.829L1909.78 730.25ZM1999.03 507.5V492.5H1988.88L1985.11 501.921L1999.03 507.5ZM2108.53 507.5L2122.29 513.482L2131.41 492.5H2108.53V507.5ZM1878.28 1037V1052H1888.11L1892.04 1042.98L1878.28 1037ZM1772.53 1037L1758.87 1030.8L1749.24 1052H1772.53V1037ZM1868 850.935L1713.5 501.435L1686.06 513.565L1840.56 863.065L1868 850.935ZM1699.78 522.5H1811.53V492.5H1699.78V522.5ZM1797.69 513.279L1890.69 736.029L1918.37 724.471L1825.37 501.721L1797.69 513.279ZM1904.53 745.25H1909.78V715.25H1904.53V745.25ZM1923.7 735.829L2012.95 513.079L1985.11 501.921L1895.86 724.671L1923.7 735.829ZM1999.03 522.5H2108.53V492.5H1999.03V522.5ZM2094.77 501.518L1864.52 1031.02L1892.04 1042.98L2122.29 513.482L2094.77 501.518ZM1878.28 1022H1772.53V1052H1878.28V1022ZM1786.19 1043.2L1867.94 863.203L1840.62 850.797L1758.87 1030.8L1786.19 1043.2ZM2268.83 857L2282.49 863.203L2285.27 857.083L2282.55 850.935L2268.83 857ZM2114.33 507.5V492.5H2091.3L2100.61 513.565L2114.33 507.5ZM2226.08 507.5L2239.92 501.721L2236.07 492.5H2226.08V507.5ZM2319.08 730.25L2305.24 736.029L2309.09 745.25H2319.08V730.25ZM2324.33 730.25V745.25H2334.48L2338.25 735.829L2324.33 730.25ZM2413.58 507.5V492.5H2403.43L2399.66 501.921L2413.58 507.5ZM2523.08 507.5L2536.84 513.482L2545.96 492.5H2523.08V507.5ZM2292.83 1037V1052H2302.66L2306.59 1042.98L2292.83 1037ZM2187.08 1037L2173.42 1030.8L2163.79 1052H2187.08V1037ZM2282.55 850.935L2128.05 501.435L2100.61 513.565L2255.11 863.065L2282.55 850.935ZM2114.33 522.5H2226.08V492.5H2114.33V522.5ZM2212.24 513.279L2305.24 736.029L2332.92 724.471L2239.92 501.721L2212.24 513.279ZM2319.08 745.25H2324.33V715.25H2319.08V745.25ZM2338.25 735.829L2427.5 513.079L2399.66 501.921L2310.41 724.671L2338.25 735.829ZM2413.58 522.5H2523.08V492.5H2413.58V522.5ZM2509.32 501.518L2279.07 1031.02L2306.59 1042.98L2536.84 513.482L2509.32 501.518ZM2292.83 1022H2187.08V1052H2292.83V1022ZM2200.74 1043.2L2282.49 863.203L2255.17 850.797L2173.42 1030.8L2200.74 1043.2ZM2608.38 591.5H2623.38V576.5H2608.38V591.5ZM2543.88 591.5H2528.88V606.5H2543.88V591.5ZM2543.88 507.5V492.5H2528.88V507.5H2543.88ZM2608.38 507.5V522.5H2623.38V507.5H2608.38ZM2608.38 395V380H2593.38V395H2608.38ZM2706.63 395H2721.63V380H2706.63V395ZM2706.63 507.5H2691.63V522.5H2706.63V507.5ZM2796.63 507.5H2811.63V492.5H2796.63V507.5ZM2796.63 591.5V606.5H2811.63V591.5H2796.63ZM2706.63 591.5V576.5H2691.63V591.5H2706.63ZM2708.88 758L2694.17 760.942L2694.29 761.537L2694.46 762.121L2708.88 758ZM2719.38 776L2730.67 766.122L2730.34 765.747L2729.99 765.393L2719.38 776ZM2769.63 785.75L2773.94 800.117L2774.58 799.925L2775.2 799.677L2769.63 785.75ZM2783.88 778.25L2798.16 773.656L2792.08 754.757L2775.56 765.769L2783.88 778.25ZM2811.63 864.5L2818.1 878.032L2829.92 872.379L2825.91 859.906L2811.63 864.5ZM2774.13 876.5L2771.4 861.751L2771.08 861.81L2770.76 861.884L2774.13 876.5ZM2680.38 872.75L2674.65 886.61L2674.93 886.728L2675.22 886.833L2680.38 872.75ZM2643.63 848.75L2654.24 838.143L2654.12 838.028L2654 837.915L2643.63 848.75ZM2608.38 576.5H2543.88V606.5H2608.38V576.5ZM2558.88 591.5V507.5H2528.88V591.5H2558.88ZM2543.88 522.5H2608.38V492.5H2543.88V522.5ZM2623.38 507.5V395H2593.38V507.5H2623.38ZM2608.38 410H2706.63V380H2608.38V410ZM2691.63 395V507.5H2721.63V395H2691.63ZM2706.63 522.5H2796.63V492.5H2706.63V522.5ZM2781.63 507.5V591.5H2811.63V507.5H2781.63ZM2796.63 576.5H2706.63V606.5H2796.63V576.5ZM2691.63 591.5V734H2721.63V591.5H2691.63ZM2691.63 734C2691.63 743.38 2692.46 752.373 2694.17 760.942L2723.59 755.058C2722.3 748.627 2721.63 741.62 2721.63 734H2691.63ZM2694.46 762.121C2697.14 771.496 2701.92 779.749 2708.77 786.607L2729.99 765.393C2726.84 762.251 2724.63 758.504 2723.3 753.879L2694.46 762.121ZM2708.09 785.878C2718.57 797.847 2733.1 803 2749.38 803V773C2739.66 773 2734.2 770.153 2730.67 766.122L2708.09 785.878ZM2749.38 803C2758.55 803 2766.95 802.216 2773.94 800.117L2765.32 771.383C2762.32 772.284 2757.21 773 2749.38 773V803ZM2775.2 799.677C2781.17 797.29 2786.84 794.304 2792.2 790.731L2775.56 765.769C2771.92 768.196 2768.09 770.21 2764.06 771.823L2775.2 799.677ZM2769.6 782.844L2797.35 869.094L2825.91 859.906L2798.16 773.656L2769.6 782.844ZM2805.16 850.968C2794.93 855.858 2783.7 859.472 2771.4 861.751L2776.86 891.249C2791.56 888.528 2805.33 884.142 2818.1 878.032L2805.16 850.968ZM2770.76 861.884C2759.06 864.584 2745.71 866 2730.63 866V896C2747.55 896 2763.2 894.416 2777.5 891.116L2770.76 861.884ZM2730.63 866C2713.62 866 2698.65 863.473 2685.54 858.667L2675.22 886.833C2692.11 893.027 2710.64 896 2730.63 896V866ZM2686.12 858.89C2673.24 853.561 2662.7 846.604 2654.24 838.143L2633.02 859.357C2644.56 870.896 2658.52 879.939 2674.65 886.61L2686.12 858.89ZM2654 837.915C2634.22 818.974 2623.38 791.35 2623.38 752.75H2593.38C2593.38 797.15 2606.04 833.526 2633.26 859.585L2654 837.915ZM2623.38 752.75V591.5H2593.38V752.75H2623.38Z" fill="black"/>
</svg>
