<svg width="200" height="200" viewBox="0 0 200 200" fill="none" xmlns="http://www.w3.org/2000/svg">
<path d="M141.667 58.3334C124.217 58.3334 111.575 71.3917 99.9916 86.2167C88.4083 71.3917 75.775 58.3334 58.3333 58.3334C35.3583 58.3334 16.6666 77.025 16.6666 100C16.6532 105.468 17.7205 110.884 19.807 115.938C21.8935 120.992 24.9582 125.584 28.825 129.45C32.6764 133.333 37.2608 136.413 42.312 138.51C47.3632 140.607 52.7807 141.68 58.25 141.667H58.35C75.7583 141.625 88.3916 128.567 99.9833 113.742C111.575 128.592 124.217 141.667 141.667 141.667C164.642 141.667 183.333 122.975 183.333 100C183.333 77.025 164.642 58.3334 141.667 58.3334ZM58.3166 125L58.25 133.333V125C51.5916 125 45.3333 122.4 40.6333 117.683C37.1499 114.18 34.7811 109.724 33.8253 104.877C32.8694 100.03 33.3691 95.0079 35.2616 90.4442C37.1541 85.8806 40.3547 81.9789 44.4602 79.2306C48.5658 76.4823 53.3928 75.0104 58.3333 75C69.4166 75 79.6666 86.9834 89.55 99.9834C79.65 112.975 69.4 124.975 58.3166 125ZM141.667 125C130.583 125 120.325 113 110.425 99.9834C120.317 86.9834 130.567 75 141.667 75C155.45 75 166.667 86.2167 166.667 100C166.667 113.783 155.45 125 141.667 125Z" fill="#2F3542"/>
</svg>
